<?xml version="1.0" encoding="utf-8"?>
<!-- Generator: Adobe Illustrator 16.0.0, SVG Export Plug-In . SVG Version: 6.00 Build 0)  -->
<!DOCTYPE svg PUBLIC "-//W3C//DTD SVG 1.1//EN" "http://www.w3.org/Graphics/SVG/1.1/DTD/svg11.dtd">
<svg version="1.1" id="Layer_1" xmlns="http://www.w3.org/2000/svg" xmlns:xlink="http://www.w3.org/1999/xlink" x="0px" y="0px"
	 width="937.453px" height="871.457px" viewBox="0 0 937.453 871.457" enable-background="new 0 0 937.453 871.457"
	 xml:space="preserve">
<g id="Layer_2">
	<g>
		<g>
			<g>
				<g enable-background="new    ">
					<g>
						
							<linearGradient id="SVGID_1_" gradientUnits="userSpaceOnUse" x1="407.6753" y1="316.0459" x2="510.3496" y2="316.0459" gradientTransform="matrix(1 0 0 -1 0 872.457)">
							<stop  offset="0" style="stop-color:#47F4FF"/>
							<stop  offset="0.1673" style="stop-color:#41DDFB"/>
							<stop  offset="0.7363" style="stop-color:#2F94F0"/>
							<stop  offset="1" style="stop-color:#2877EB"/>
						</linearGradient>
						<path fill="url(#SVGID_1_)" d="M424.325,576.568c-19.258-11.119-19.36-29.205-0.227-40.323
							c19.119-11.106,50.356-11.117,69.612,0c19.258,11.118,19.347,29.215,0.229,40.323
							C474.806,587.689,443.584,587.689,424.325,576.568 M495.213,535.375c-20.089-11.6-52.668-11.6-72.626,0
							c-19.971,11.606-19.867,30.475,0.223,42.073c20.09,11.6,52.669,11.6,72.642-0.006
							C515.408,565.844,515.302,546.97,495.213,535.375"/>
					</g>
				</g>
			</g>
			<g opacity="0.6">
				<g enable-background="new    ">
					<g>
						
							<linearGradient id="SVGID_2_" gradientUnits="userSpaceOnUse" x1="-42.2002" y1="490.1113" x2="60.4736" y2="490.1113" gradientTransform="matrix(-3.1491 0 0 3.1491 487.7844 -986.9973)">
							<stop  offset="0" style="stop-color:#47F4FF"/>
							<stop  offset="0.1673" style="stop-color:#41DDFB"/>
							<stop  offset="0.7363" style="stop-color:#2F94F0"/>
							<stop  offset="1" style="stop-color:#2877EB"/>
						</linearGradient>
						<path fill="url(#SVGID_2_)" d="M568.246,492.931c60.644,35.015,60.964,91.969,0.714,126.98
							c-60.207,34.987-158.574,35.011-219.217,0c-60.645-35.013-60.923-91.99-0.716-126.979
							C409.276,457.919,507.602,457.917,568.246,492.931 M345.012,622.658c63.263,36.522,165.86,36.522,228.709,0
							c62.894-36.547,62.559-95.974-0.703-132.5c-63.26-36.522-165.857-36.522-228.751,0.025
							C281.417,526.708,281.752,586.137,345.012,622.658"/>
					</g>
				</g>
			</g>
			<g opacity="0.4">
				<g enable-background="new    ">
					<g>
						
							<linearGradient id="SVGID_3_" gradientUnits="userSpaceOnUse" x1="-81.0264" y1="490.1113" x2="99.3003" y2="490.1113" gradientTransform="matrix(-3.1491 0 0 3.1491 487.7844 -986.9973)">
							<stop  offset="0" style="stop-color:#47F4FF"/>
							<stop  offset="0.1673" style="stop-color:#41DDFB"/>
							<stop  offset="0.7363" style="stop-color:#2F94F0"/>
							<stop  offset="1" style="stop-color:#2877EB"/>
						</linearGradient>
						<path fill="url(#SVGID_3_)" d="M650.86,444.923c106.509,61.493,107.071,161.515,1.254,223.013
							c-105.742,61.451-278.504,61.495-385.013,0c-106.51-61.492-106.999-161.562-1.254-223.013
							C371.663,383.429,544.35,383.428,650.86,444.923 M258.793,672.762c111.105,64.152,291.298,64.152,401.682,0
							c110.456-64.19,109.872-168.564-1.234-232.711c-111.105-64.147-291.298-64.146-401.756,0.046
							C147.101,504.241,147.688,608.62,258.793,672.762"/>
					</g>
				</g>
			</g>
			<g opacity="0.1">
				<g enable-background="new    ">
					<g>
						
							<linearGradient id="SVGID_4_" gradientUnits="userSpaceOnUse" x1="-126.3062" y1="490.1113" x2="144.5791" y2="490.1113" gradientTransform="matrix(-3.1491 0 0 3.1491 487.7844 -986.9973)">
							<stop  offset="0" style="stop-color:#47F4FF"/>
							<stop  offset="0.1673" style="stop-color:#41DDFB"/>
							<stop  offset="0.7363" style="stop-color:#2F94F0"/>
							<stop  offset="1" style="stop-color:#2877EB"/>
						</linearGradient>
						<path fill="url(#SVGID_4_)" d="M747.204,388.933c159.996,92.375,160.844,242.637,1.885,335.004
							c-158.847,92.315-418.367,92.382-578.364,0.009c-160-92.373-160.732-242.697-1.887-335.01
							C327.797,296.558,587.205,296.558,747.204,388.933 M158.246,731.198c166.901,96.357,437.586,96.357,603.404-0.007
							c165.93-96.426,165.043-253.216-1.855-349.575c-166.9-96.36-437.587-96.358-603.516,0.067
							C-9.539,478.047-8.655,634.838,158.246,731.198"/>
					</g>
				</g>
			</g>
		</g>
		<g>
			<g>
				
					<linearGradient id="SVGID_5_" gradientUnits="userSpaceOnUse" x1="2.0078" y1="443.8555" x2="393.333" y2="443.8555" gradientTransform="matrix(1 0 0 -1 0 872.457)">
					<stop  offset="0" style="stop-color:#E5E7FD"/>
					<stop  offset="0.8309" style="stop-color:#EDEFFF"/>
					<stop  offset="1" style="stop-color:#EFF1FF"/>
				</linearGradient>
				<path fill="url(#SVGID_5_)" d="M393.333,404.557h-27.764l-154.682-89.745c-6.754-3.915-15.088-3.923-21.85-0.018L29.88,402.847
					H2.008v24.355H2.01c-0.003,4.815,2.375,9.635,7.137,12.395L187.875,542.39c6.754,3.915,15.086,3.926,21.848,0.019
					l176.45-101.103c4.771-2.755,7.156-7.573,7.16-12.394l0,0V404.557L393.333,404.557z"/>
				
					<linearGradient id="SVGID_6_" gradientUnits="userSpaceOnUse" x1="131.6216" y1="554.7959" x2="266.2158" y2="379.4617" gradientTransform="matrix(1 0 0 -1 0 872.457)">
					<stop  offset="0" style="stop-color:#E8ECFF"/>
					<stop  offset="0.3976" style="stop-color:#F2F5FF"/>
					<stop  offset="1" style="stop-color:#FEFEFE"/>
				</linearGradient>
				<path fill="url(#SVGID_6_)" d="M187.875,518.03L9.147,415.243c-9.528-5.521-9.515-19.283,0.02-24.789l179.87-100.014
					c6.762-3.905,15.095-3.899,21.85,0.018l175.308,101.705c9.526,5.521,9.514,19.283-0.022,24.79L209.723,518.05
					C202.961,521.958,194.63,521.951,187.875,518.03z"/>
				
					<linearGradient id="SVGID_7_" gradientUnits="userSpaceOnUse" x1="274.667" y1="400.604" x2="136.8285" y2="522.4435" gradientTransform="matrix(1 0 0 -1 0 872.457)">
					<stop  offset="0" style="stop-color:#1A4DB6"/>
					<stop  offset="0.2804" style="stop-color:#2156C2"/>
					<stop  offset="0.7807" style="stop-color:#356FE0"/>
					<stop  offset="1" style="stop-color:#3F7CF0"/>
				</linearGradient>
				<path fill="url(#SVGID_7_)" d="M189.526,498.859L40.915,413.39c-7.923-4.591-7.914-16.032,0.017-20.612l149.56-83.163
					c5.622-3.246,12.551-3.241,18.167,0.016l145.769,84.567c7.922,4.591,7.912,16.033-0.018,20.611l-146.717,84.065
					C202.07,502.124,195.141,502.116,189.526,498.859z"/>
				
					<linearGradient id="SVGID_8_" gradientUnits="userSpaceOnUse" x1="274.6899" y1="400.8911" x2="136.9577" y2="522.6366" gradientTransform="matrix(1 0 0 -1 0 872.457)">
					<stop  offset="0" style="stop-color:#3F7CF0"/>
					<stop  offset="0.2193" style="stop-color:#356FE0"/>
					<stop  offset="0.7196" style="stop-color:#2156C2"/>
					<stop  offset="1" style="stop-color:#1A4DB6"/>
				</linearGradient>
				<path fill="url(#SVGID_8_)" d="M40.932,405.987l149.56-83.162c5.622-3.246,12.551-3.241,18.167,0.016l145.769,84.565
					c1.657,0.962,2.884,2.264,3.848,3.7c3.64-5.418,2.411-13.279-3.848-16.907l-145.769-84.567
					c-5.617-3.256-12.545-3.262-18.167-0.016l-149.56,83.163c-6.271,3.621-7.508,11.491-3.866,16.915
					C38.032,408.255,39.266,406.948,40.932,405.987z"/>
				<path fill="#FFFFFF" d="M386.173,412.69l-176.45,101.097c-6.762,3.908-15.093,3.9-21.848-0.013L9.147,410.983
					c-4.05-2.349-6.27-6.196-6.872-10.257c-0.813,5.479,1.406,11.348,6.872,14.517L187.875,518.03
					c6.754,3.921,15.086,3.928,21.848,0.021l176.45-101.098c5.484-3.167,7.71-9.048,6.895-14.534
					C392.463,406.485,390.237,410.344,386.173,412.69z"/>
			</g>
			<path opacity="0.8" fill="#00E3F8" enable-background="new    " d="M190.045,474.482L50.926,394.471
				c-7.416-4.298-7.406-15.009,0.016-19.296l140.01-77.85c5.263-3.039,11.748-3.034,17.005,0.014l136.461,79.166
				c7.415,4.299,7.405,15.009-0.019,19.297l-137.346,78.694C201.789,477.537,195.304,477.532,190.045,474.482z"/>
			<path opacity="0.6" fill="#00E3F8" enable-background="new    " d="M191.832,439.423l-106.518-61.26
				c-5.677-3.292-5.67-11.494,0.013-14.775l107.198-59.605c4.03-2.327,8.996-2.324,13.021,0.01l104.48,60.612
				c5.679,3.293,5.672,11.494-0.013,14.776l-105.16,60.252C200.825,441.76,195.858,441.755,191.832,439.423z"/>
			<g opacity="0.5">
			</g>
			<g>
				<g>
					
						<linearGradient id="SVGID_9_" gradientUnits="userSpaceOnUse" x1="164.8774" y1="556.7373" x2="132.8778" y2="579.7547" gradientTransform="matrix(1 0 0 -1 0 872.457)">
						<stop  offset="0" style="stop-color:#47F4FF"/>
						<stop  offset="0.1673" style="stop-color:#41DDFB"/>
						<stop  offset="0.7363" style="stop-color:#2F94F0"/>
						<stop  offset="1" style="stop-color:#2877EB"/>
					</linearGradient>
					
						<line fill="none" stroke="url(#SVGID_9_)" stroke-width="0.75" stroke-linecap="round" stroke-linejoin="round" stroke-miterlimit="10" x1="148.878" y1="271.1" x2="148.878" y2="337.321"/>
					
						<radialGradient id="SVGID_10_" cx="150.8213" cy="603.832" r="12.7596" gradientTransform="matrix(1 0 0 -1 0 872.457)" gradientUnits="userSpaceOnUse">
						<stop  offset="0" style="stop-color:#47F4FF"/>
						<stop  offset="0.1673" style="stop-color:#41DDFB"/>
						<stop  offset="0.7363" style="stop-color:#2F94F0"/>
						<stop  offset="1" style="stop-color:#2877EB"/>
					</radialGradient>
					<circle fill="url(#SVGID_10_)" cx="148.877" cy="271.1" r="7.411"/>
					<g>
						
							<linearGradient id="SVGID_11_" gradientUnits="userSpaceOnUse" x1="266.563" y1="530.8633" x2="290.9575" y2="530.8633" gradientTransform="matrix(0.7071 -0.7071 -0.7071 -0.7071 327.1401 830.6851)">
							<stop  offset="0" style="stop-color:#47F4FF"/>
							<stop  offset="0.1673" style="stop-color:#41DDFB"/>
							<stop  offset="0.7363" style="stop-color:#2F94F0"/>
							<stop  offset="1" style="stop-color:#2877EB"/>
						</linearGradient>
						
							<path fill="none" stroke="url(#SVGID_11_)" stroke-width="0.75" stroke-linecap="round" stroke-linejoin="round" stroke-miterlimit="10" d="
							M132.158,258.2c9.233-9.233,24.203-9.233,33.438,0"/>
						
							<linearGradient id="SVGID_12_" gradientUnits="userSpaceOnUse" x1="266.564" y1="536.25" x2="301.7285" y2="536.25" gradientTransform="matrix(0.7071 -0.7071 -0.7071 -0.7071 327.1401 830.6851)">
							<stop  offset="0" style="stop-color:#47F4FF"/>
							<stop  offset="0.1673" style="stop-color:#41DDFB"/>
							<stop  offset="0.7363" style="stop-color:#2F94F0"/>
							<stop  offset="1" style="stop-color:#2877EB"/>
						</linearGradient>
						
							<path fill="none" stroke="url(#SVGID_12_)" stroke-width="0.75" stroke-linecap="round" stroke-linejoin="round" stroke-miterlimit="10" d="
							M124.543,250.584c13.44-13.44,35.229-13.44,48.669,0"/>
						
							<linearGradient id="SVGID_13_" gradientUnits="userSpaceOnUse" x1="266.564" y1="541.9238" x2="313.0771" y2="541.9238" gradientTransform="matrix(0.7071 -0.7071 -0.7071 -0.7071 327.1401 830.6851)">
							<stop  offset="0" style="stop-color:#47F4FF"/>
							<stop  offset="0.1673" style="stop-color:#41DDFB"/>
							<stop  offset="0.7363" style="stop-color:#2F94F0"/>
							<stop  offset="1" style="stop-color:#2877EB"/>
						</linearGradient>
						
							<path fill="none" stroke="url(#SVGID_13_)" stroke-width="0.75" stroke-linecap="round" stroke-linejoin="round" stroke-miterlimit="10" d="
							M116.518,242.559c17.873-17.872,46.848-17.872,64.719,0"/>
					</g>
				</g>
				<g>
					<g>
						
							<linearGradient id="SVGID_14_" gradientUnits="userSpaceOnUse" x1="132.1592" y1="524.6006" x2="273.3818" y2="524.6006" gradientTransform="matrix(1 0 0 -1 0 872.457)">
							<stop  offset="0" style="stop-color:#E5E7FD"/>
							<stop  offset="0.8309" style="stop-color:#EDEFFF"/>
							<stop  offset="1" style="stop-color:#EFF1FF"/>
						</linearGradient>
						<path fill="url(#SVGID_14_)" d="M273.382,338.282H249.73l-49.146-30.085c-5.754-3.336-12.854-3.343-18.614-0.016
							l-26.066,14.035h-23.745v13.541l0,0c-0.002,4.104,2.023,8.21,6.081,10.562l69.63,41.197
							c5.755,3.336,12.854,3.343,18.613,0.017l40.799-25.15c4.065-2.346,6.097-6.453,6.1-10.558l0,0V338.282L273.382,338.282z"/>
						
							<linearGradient id="SVGID_15_" gradientUnits="userSpaceOnUse" x1="174.2588" y1="579.3496" x2="232.3582" y2="503.6641" gradientTransform="matrix(1 0 0 -1 0 872.457)">
							<stop  offset="0" style="stop-color:#E8ECFF"/>
							<stop  offset="0.3976" style="stop-color:#F2F5FF"/>
							<stop  offset="1" style="stop-color:#FEFEFE"/>
						</linearGradient>
						<path fill="url(#SVGID_15_)" d="M207.87,373.974l-69.63-41.197c-8.115-4.705-8.107-16.427,0.018-21.12l43.712-24.224
							c5.761-3.327,12.86-3.32,18.614,0.016l66.716,40.272c8.117,4.704,8.106,16.428-0.018,21.119l-40.8,25.15
							C220.723,377.316,213.625,377.312,207.87,373.974z"/>
						<path fill="#FFFFFF" d="M267.282,345.21l-40.799,25.149c-5.76,3.328-12.858,3.321-18.613-0.015l-69.63-41.198
							c-3.45-2-5.34-5.279-5.855-8.738c-0.69,4.667,1.199,9.669,5.855,12.368l69.63,41.197c5.755,3.337,12.854,3.342,18.613,0.017
							l40.799-25.15c4.671-2.697,6.568-7.708,5.874-12.382C272.642,339.923,270.746,343.211,267.282,345.21z"/>
					</g>
					
						<linearGradient id="SVGID_16_" gradientUnits="userSpaceOnUse" x1="183.311" y1="545.8887" x2="222.231" y2="545.8887" gradientTransform="matrix(1 0 0 -1 0 872.457)">
						<stop  offset="0" style="stop-color:#54EDC8"/>
						<stop  offset="1" style="stop-color:#55DFEA"/>
					</linearGradient>
					<path fill="url(#SVGID_16_)" d="M183.763,325.785l18.09-10.438c0.569-0.326,1.268-0.326,1.834,0l18.092,10.438
						c0.603,0.349,0.603,1.217,0,1.565l-18.092,10.438c-0.567,0.327-1.266,0.327-1.834,0l-18.09-10.438
						C183.16,327.002,183.16,326.134,183.763,325.785z"/>
					<path fill="#FFFFFF" d="M185.066,328.102l16.787-9.687c0.569-0.327,1.268-0.327,1.834,0l16.79,9.687l1.302-0.752
						c0.603-0.348,0.603-1.216,0-1.565l-18.092-10.438c-0.567-0.328-1.266-0.328-1.834,0l-18.09,10.438
						c-0.603,0.349-0.603,1.217,0,1.565L185.066,328.102z"/>
					<g>
						<g>
							
								<linearGradient id="SVGID_17_" gradientUnits="userSpaceOnUse" x1="233.626" y1="505.9902" x2="260.125" y2="505.9902" gradientTransform="matrix(1 0 0 -1 0 872.457)">
								<stop  offset="0" style="stop-color:#47F4FF"/>
								<stop  offset="0.1673" style="stop-color:#41DDFB"/>
								<stop  offset="0.7363" style="stop-color:#2F94F0"/>
								<stop  offset="1" style="stop-color:#2877EB"/>
							</linearGradient>
							<path fill="url(#SVGID_17_)" d="M234.528,374.263c-0.315,0-0.622-0.165-0.787-0.46c-0.244-0.435-0.088-0.984,0.346-1.228
								l24.695-13.792c0.432-0.238,0.983-0.09,1.229,0.346c0.242,0.435,0.087,0.984-0.348,1.227l-24.696,13.792
								C234.828,374.226,234.676,374.263,234.528,374.263z"/>
						</g>
						<g>
							
								<linearGradient id="SVGID_18_" gradientUnits="userSpaceOnUse" x1="233.626" y1="501.8848" x2="260.125" y2="501.8848" gradientTransform="matrix(1 0 0 -1 0 872.457)">
								<stop  offset="0" style="stop-color:#47F4FF"/>
								<stop  offset="0.1673" style="stop-color:#41DDFB"/>
								<stop  offset="0.7363" style="stop-color:#2F94F0"/>
								<stop  offset="1" style="stop-color:#2877EB"/>
							</linearGradient>
							<path fill="url(#SVGID_18_)" d="M234.528,378.37c-0.315,0-0.622-0.165-0.787-0.462c-0.244-0.434-0.088-0.981,0.346-1.225
								l24.695-13.796c0.432-0.239,0.983-0.087,1.229,0.348c0.242,0.435,0.087,0.982-0.348,1.226l-24.696,13.795
								C234.828,378.333,234.676,378.37,234.528,378.37z"/>
						</g>
					</g>
					
						<linearGradient id="SVGID_19_" gradientUnits="userSpaceOnUse" x1="161.0176" y1="519.3008" x2="142.6271" y2="530.185" gradientTransform="matrix(1 0 0 -1 0 872.457)">
						<stop  offset="0" style="stop-color:#54EDC8"/>
						<stop  offset="1" style="stop-color:#55DFEA"/>
					</linearGradient>
					<path fill="url(#SVGID_19_)" d="M146.158,343.579c0.408,1.211,0.013,2.297-0.879,2.423c-0.891,0.125-1.944-0.758-2.351-1.972
						c-0.407-1.214-0.013-2.3,0.878-2.426C144.699,341.481,145.751,342.364,146.158,343.579z M151.137,345.546
						c-0.891,0.125-1.287,1.21-0.879,2.423c0.407,1.215,1.459,2.098,2.351,1.973c0.893-0.125,1.285-1.21,0.879-2.425
						C153.081,346.304,152.028,345.421,151.137,345.546z M158.466,349.485c-0.892,0.125-1.286,1.211-0.88,2.425
						c0.407,1.214,1.461,2.097,2.353,1.972c0.891-0.125,1.285-1.211,0.878-2.424C160.411,350.244,159.358,349.361,158.466,349.485z"
						/>
				</g>
			</g>
		</g>
		<g>
			<g>
				
					<linearGradient id="SVGID_20_" gradientUnits="userSpaceOnUse" x1="536.46" y1="459.1738" x2="927.7842" y2="459.1738" gradientTransform="matrix(1 0 0 -1 0 872.457)">
					<stop  offset="0" style="stop-color:#E5E7FD"/>
					<stop  offset="0.8309" style="stop-color:#EDEFFF"/>
					<stop  offset="1" style="stop-color:#EFF1FF"/>
				</linearGradient>
				<path fill="url(#SVGID_20_)" d="M927.783,389.24h-27.761l-154.687-89.746c-6.755-3.916-15.087-3.922-21.849-0.019L564.33,387.53
					h-27.87v24.354l0,0c-0.003,4.817,2.377,9.635,7.139,12.396l178.729,102.791c6.755,3.918,15.089,3.921,21.849,0.018
					l176.448-101.101c4.771-2.756,7.157-7.573,7.16-12.395l0,0L927.783,389.24L927.783,389.24z"/>
				
					<linearGradient id="SVGID_21_" gradientUnits="userSpaceOnUse" x1="666.0723" y1="570.1152" x2="800.6667" y2="394.7804" gradientTransform="matrix(1 0 0 -1 0 872.457)">
					<stop  offset="0" style="stop-color:#E8ECFF"/>
					<stop  offset="0.3976" style="stop-color:#F2F5FF"/>
					<stop  offset="1" style="stop-color:#FEFEFE"/>
				</linearGradient>
				<path fill="url(#SVGID_21_)" d="M722.326,502.713L543.598,399.925c-9.525-5.523-9.515-19.282,0.021-24.791l179.869-100.013
					c6.762-3.906,15.094-3.898,21.849,0.018l175.308,101.704c9.527,5.522,9.517,19.283-0.021,24.79L744.175,502.731
					C737.415,506.638,729.081,506.631,722.326,502.713z"/>
				
					<linearGradient id="SVGID_22_" gradientUnits="userSpaceOnUse" x1="809.1182" y1="415.9229" x2="671.2801" y2="537.762" gradientTransform="matrix(1 0 0 -1 0 872.457)">
					<stop  offset="0" style="stop-color:#1A4DB6"/>
					<stop  offset="0.2804" style="stop-color:#2156C2"/>
					<stop  offset="0.7807" style="stop-color:#356FE0"/>
					<stop  offset="1" style="stop-color:#3F7CF0"/>
				</linearGradient>
				<path fill="url(#SVGID_22_)" d="M723.979,483.543l-148.612-85.471c-7.923-4.592-7.912-16.033,0.018-20.613l149.562-83.161
					c5.622-3.248,12.549-3.241,18.168,0.015l145.768,84.566c7.922,4.592,7.91,16.034-0.019,20.612L742.145,483.56
					C736.521,486.802,729.594,486.798,723.979,483.543z"/>
				
					<linearGradient id="SVGID_23_" gradientUnits="userSpaceOnUse" x1="809.1426" y1="416.21" x2="671.4104" y2="537.9554" gradientTransform="matrix(1 0 0 -1 0 872.457)">
					<stop  offset="0" style="stop-color:#3F7CF0"/>
					<stop  offset="0.2193" style="stop-color:#356FE0"/>
					<stop  offset="0.7196" style="stop-color:#2156C2"/>
					<stop  offset="1" style="stop-color:#1A4DB6"/>
				</linearGradient>
				<path fill="url(#SVGID_23_)" d="M575.383,390.669l149.562-83.161c5.622-3.249,12.549-3.241,18.168,0.015L888.88,392.09
					c1.656,0.959,2.887,2.263,3.85,3.696c3.635-5.416,2.412-13.278-3.85-16.906l-145.768-84.566
					c-5.619-3.255-12.546-3.263-18.168-0.015L575.383,377.46c-6.271,3.621-7.508,11.491-3.865,16.916
					C572.483,392.936,573.719,391.631,575.383,390.669z"/>
				<path fill="#FFFFFF" d="M920.623,397.372l-176.448,101.1c-6.76,3.907-15.094,3.9-21.849-0.018l-178.728-102.79
					c-4.052-2.348-6.269-6.197-6.872-10.256c-0.813,5.479,1.404,11.348,6.872,14.517l178.729,102.788
					c6.755,3.918,15.089,3.925,21.849,0.019l176.448-101.099c5.482-3.166,7.709-9.046,6.896-14.534
					C926.915,391.167,924.689,395.025,920.623,397.372z"/>
			</g>
			<path opacity="0.8" fill="#00E3F8" enable-background="new    " d="M724.497,459.166l-139.12-80.012
				c-7.416-4.298-7.407-15.01,0.016-19.296l140.011-77.851c5.261-3.039,11.749-3.033,17.006,0.015l136.456,79.166
				c7.418,4.3,7.409,15.011-0.016,19.296l-137.345,78.697C736.241,462.216,729.754,462.212,724.497,459.166z"/>
			<path opacity="0.6" fill="#00E3F8" enable-background="new    " d="M726.283,424.104l-106.518-61.26
				c-5.678-3.292-5.673-11.493,0.013-14.775l107.197-59.605c4.029-2.328,8.995-2.323,13.022,0.009l104.479,60.614
				c5.676,3.291,5.669,11.492-0.016,14.774l-105.158,60.254C735.275,426.442,730.308,426.438,726.283,424.104z"/>
			<g>
				<g opacity="0.4">
				</g>
				<g>
					<g>
						<g>
							
								<linearGradient id="SVGID_24_" gradientUnits="userSpaceOnUse" x1="-600.0391" y1="541.0508" x2="-458.8154" y2="541.0508" gradientTransform="matrix(-1 0 0 -1 209.6807 872.457)">
								<stop  offset="0" style="stop-color:#E5E7FD"/>
								<stop  offset="0.8309" style="stop-color:#EDEFFF"/>
								<stop  offset="1" style="stop-color:#EFF1FF"/>
							</linearGradient>
							<path fill="url(#SVGID_24_)" d="M668.497,321.831h23.653l49.144-30.084c5.756-3.336,12.854-3.341,18.615-0.016l26.065,14.036
								h23.745v13.539l0,0c0,4.104-2.023,8.211-6.079,10.563l-69.632,41.195c-5.754,3.337-12.854,3.343-18.614,0.017l-40.798-25.149
								c-4.063-2.348-6.098-6.452-6.101-10.561l0,0L668.497,321.831L668.497,321.831z"/>
							
								<linearGradient id="SVGID_25_" gradientUnits="userSpaceOnUse" x1="-557.9395" y1="595.7998" x2="-499.8403" y2="520.1147" gradientTransform="matrix(-1 0 0 -1 209.6807 872.457)">
								<stop  offset="0" style="stop-color:#FEFEFE"/>
								<stop  offset="0.6024" style="stop-color:#F2F5FF"/>
								<stop  offset="1" style="stop-color:#E8ECFF"/>
							</linearGradient>
							<path fill="url(#SVGID_25_)" d="M734.01,357.524l69.632-41.198c8.112-4.705,8.106-16.428-0.021-21.12l-43.712-24.224
								c-5.761-3.326-12.859-3.321-18.615,0.016l-66.715,40.271c-8.117,4.707-8.106,16.429,0.019,21.121l40.799,25.149
								C721.156,360.866,728.256,360.861,734.01,357.524z"/>
							<path fill="#FFFFFF" d="M674.598,328.76l40.799,25.149c5.761,3.327,12.859,3.32,18.613-0.016l69.632-41.198
								c3.45-2,5.339-5.278,5.854-8.735c0.689,4.666-1.2,9.666-5.854,12.366l-69.632,41.198c-5.754,3.336-12.854,3.341-18.613,0.015
								l-40.799-25.149c-4.67-2.697-6.567-7.706-5.873-12.382C669.237,323.473,671.134,326.761,674.598,328.76z"/>
						</g>
						<g>
							<g>
								
									<linearGradient id="SVGID_26_" gradientUnits="userSpaceOnUse" x1="-551.2275" y1="564.7236" x2="-498.4658" y2="564.7236" gradientTransform="matrix(-1 0 0 -1 209.6807 872.457)">
									<stop  offset="0" style="stop-color:#54EDC8"/>
									<stop  offset="1" style="stop-color:#55DFEA"/>
								</linearGradient>
								<path fill="url(#SVGID_26_)" d="M760.295,306.673l-24.525-14.15c-0.771-0.445-1.717-0.445-2.486,0l-24.523,14.15
									c-0.817,0.471-0.817,1.65,0,2.121l24.523,14.15c0.771,0.444,1.717,0.444,2.486,0l24.525-14.15
									C761.112,308.324,761.112,307.145,760.295,306.673z"/>
							</g>
							<g>
								<g enable-background="new    ">
									<g>
										<path fill="#FFFFFF" d="M733.838,308.975c1.781-1.03,4.234-1.674,6.929-1.687l0.891,0.515l-0.896,0.517
											c-2.202,0.01-4.211,0.541-5.668,1.381c-1.46,0.842-2.366,1.997-2.376,3.263l-0.267,0.36l-0.625,0.156l-0.886-0.516
											C730.945,311.414,732.057,310.002,733.838,308.975"/>
										<path fill="#FFFFFF" d="M730.969,307.312c2.515-1.451,5.98-2.346,9.813-2.346l0.887,0.514l-0.893,0.517
											c-3.319-0.014-6.342,0.766-8.535,2.035c-2.196,1.267-3.564,3.021-3.574,4.956l-0.27,0.361l-0.626,0.155l-0.887-0.516
											C726.896,310.77,728.455,308.763,730.969,307.312"/>
										<path fill="#FFFFFF" d="M727.951,305.533c3.438-1.987,7.989-3.07,12.846-3.044l0.886,0.514l-0.896,0.518
											c-4.362,0-8.466,0.979-11.549,2.758c-3.13,1.807-4.834,4.181-4.849,6.708l-0.27,0.361l-0.624,0.155l-0.889-0.516
											C722.58,310.176,724.511,307.52,727.951,305.533"/>
										<path fill="#FFFFFF" d="M737.762,311.234c1.072-0.619,2.854-0.619,3.962,0.026c1.067,0.619,1.063,1.651-0.012,2.27
											c-1.117,0.645-2.897,0.645-3.962,0.025C736.639,312.911,736.645,311.878,737.762,311.234"/>
									</g>
								</g>
							</g>
							<path fill="#FFFFFF" d="M759.862,309.044l-24.094-13.901c-0.771-0.443-1.717-0.443-2.486,0l-24.091,13.901l-0.434-0.25
								c-0.817-0.47-0.817-1.649,0-2.121l24.523-14.15c0.771-0.445,1.717-0.445,2.486,0l24.525,14.15
								c0.817,0.471,0.817,1.65,0,2.121L759.862,309.044z"/>
						</g>
						<g>
							<g>
								
									<linearGradient id="SVGID_27_" gradientUnits="userSpaceOnUse" x1="779.7334" y1="540.6465" x2="806.2324" y2="540.6465" gradientTransform="matrix(1 0 0 -1 -8.2324 872.457)">
									<stop  offset="0" style="stop-color:#47F4FF"/>
									<stop  offset="0.1673" style="stop-color:#41DDFB"/>
									<stop  offset="0.7363" style="stop-color:#2F94F0"/>
									<stop  offset="1" style="stop-color:#2877EB"/>
								</linearGradient>
								<path fill="url(#SVGID_27_)" d="M772.401,339.606c-0.314,0-0.622-0.166-0.785-0.46c-0.243-0.434-0.089-0.984,0.347-1.228
									l24.696-13.792c0.43-0.236,0.98-0.089,1.225,0.348c0.246,0.435,0.089,0.983-0.347,1.226l-24.694,13.792
									C772.704,339.57,772.553,339.606,772.401,339.606z"/>
							</g>
							<g>
								
									<linearGradient id="SVGID_28_" gradientUnits="userSpaceOnUse" x1="779.7334" y1="536.541" x2="806.2324" y2="536.541" gradientTransform="matrix(1 0 0 -1 -8.2324 872.457)">
									<stop  offset="0" style="stop-color:#47F4FF"/>
									<stop  offset="0.1673" style="stop-color:#41DDFB"/>
									<stop  offset="0.7363" style="stop-color:#2F94F0"/>
									<stop  offset="1" style="stop-color:#2877EB"/>
								</linearGradient>
								<path fill="url(#SVGID_28_)" d="M772.401,343.714c-0.314,0-0.622-0.165-0.785-0.46c-0.243-0.435-0.089-0.984,0.347-1.228
									l24.696-13.794c0.43-0.239,0.98-0.087,1.225,0.347c0.246,0.435,0.089,0.984-0.347,1.227L772.843,343.6
									C772.704,343.678,772.553,343.714,772.401,343.714z"/>
							</g>
						</g>
						<g>
							<g>
								<g enable-background="new    ">
									<g>
										
											<linearGradient id="SVGID_29_" gradientUnits="userSpaceOnUse" x1="-528.4263" y1="538.9326" x2="-565.2878" y2="560.8191" gradientTransform="matrix(-1 0 0 -1 209.6807 872.457)">
											<stop  offset="0" style="stop-color:#54EDC8"/>
											<stop  offset="1" style="stop-color:#55DFEA"/>
										</linearGradient>
										<path fill="url(#SVGID_29_)" d="M770.605,311.583c1.241-0.718,3.283-0.74,4.517-0.023
											c1.239,0.718,1.229,1.922-0.012,2.641c-1.245,0.716-3.284,0.694-4.521-0.023
											C769.354,313.458,769.363,312.3,770.605,311.583"/>
										
											<linearGradient id="SVGID_30_" gradientUnits="userSpaceOnUse" x1="-528.3774" y1="539.0361" x2="-565.2292" y2="560.9169" gradientTransform="matrix(-1 0 0 -1 209.6807 872.457)">
											<stop  offset="0" style="stop-color:#54EDC8"/>
											<stop  offset="1" style="stop-color:#55DFEA"/>
										</linearGradient>
										<path fill="url(#SVGID_30_)" d="M762.583,316.214c1.244-0.718,3.242-0.718,4.478,0c1.236,0.718,1.27,1.899,0.027,2.618
											c-1.283,0.741-3.322,0.717-4.559,0C761.293,318.113,761.3,316.955,762.583,316.214"/>
										
											<linearGradient id="SVGID_31_" gradientUnits="userSpaceOnUse" x1="-528.3179" y1="539.1309" x2="-565.1731" y2="561.0136" gradientTransform="matrix(-1 0 0 -1 209.6807 872.457)">
											<stop  offset="0" style="stop-color:#54EDC8"/>
											<stop  offset="1" style="stop-color:#55DFEA"/>
										</linearGradient>
										<path fill="url(#SVGID_31_)" d="M754.521,320.871c1.243-0.718,3.282-0.742,4.52-0.023c1.232,0.718,1.227,1.921-0.018,2.64
											c-1.242,0.717-3.281,0.694-4.518-0.024C753.271,322.746,753.276,321.587,754.521,320.871"/>
										
											<linearGradient id="SVGID_32_" gradientUnits="userSpaceOnUse" x1="-528.2607" y1="539.2275" x2="-565.1154" y2="561.1099" gradientTransform="matrix(-1 0 0 -1 209.6807 872.457)">
											<stop  offset="0" style="stop-color:#54EDC8"/>
											<stop  offset="1" style="stop-color:#55DFEA"/>
										</linearGradient>
										<path fill="url(#SVGID_32_)" d="M746.499,325.502c1.244-0.719,3.242-0.719,4.478,0c1.236,0.717,1.27,1.899,0.027,2.617
											c-1.245,0.717-3.326,0.717-4.559,0C745.209,327.401,745.254,326.219,746.499,325.502"/>
										
											<linearGradient id="SVGID_33_" gradientUnits="userSpaceOnUse" x1="-528.2026" y1="539.3252" x2="-565.0571" y2="561.2075" gradientTransform="matrix(-1 0 0 -1 209.6807 872.457)">
											<stop  offset="0" style="stop-color:#54EDC8"/>
											<stop  offset="1" style="stop-color:#55DFEA"/>
										</linearGradient>
										<path fill="url(#SVGID_33_)" d="M738.438,330.156c1.241-0.717,3.28-0.74,4.518-0.022c1.235,0.717,1.229,1.922-0.015,2.64
											c-1.242,0.719-3.281,0.695-4.518-0.022C737.188,332.033,737.192,330.875,738.438,330.156"/>
									</g>
								</g>
							</g>
							<g>
								<path fill="#FFFFFF" d="M762.583,316.214c1.244-0.718,3.242-0.718,4.478,0c0.862,0.502,1.104,1.225,0.766,1.863
									c-0.146-0.292-0.37-0.572-0.766-0.799c-1.234-0.718-3.232-0.718-4.478,0c-0.409,0.235-0.641,0.518-0.792,0.811
									C761.447,317.456,761.685,316.734,762.583,316.214z"/>
								<path fill="#FFFFFF" d="M742.954,331.197c-1.236-0.718-3.275-0.695-4.518,0.023c-0.386,0.223-0.609,0.493-0.759,0.773
									c-0.335-0.629-0.105-1.338,0.759-1.837c1.241-0.717,3.28-0.74,4.518-0.022c0.848,0.492,1.065,1.207,0.747,1.842
									C743.556,331.69,743.336,331.417,742.954,331.197z"/>
								<path fill="#FFFFFF" d="M770.605,311.583c1.241-0.718,3.283-0.741,4.517-0.023c0.848,0.492,1.067,1.205,0.75,1.843
									c-0.146-0.285-0.367-0.559-0.75-0.78c-1.232-0.718-3.274-0.695-4.517,0.023c-0.387,0.223-0.61,0.493-0.76,0.774
									C769.515,312.791,769.74,312.083,770.605,311.583z"/>
								<path fill="#FFFFFF" d="M754.521,320.871c1.243-0.718,3.279-0.742,4.52-0.023c0.845,0.491,1.064,1.206,0.744,1.842
									c-0.146-0.287-0.365-0.558-0.744-0.78c-1.239-0.718-3.275-0.695-4.52,0.024c-0.387,0.222-0.61,0.491-0.76,0.773
									C753.431,322.078,753.656,321.37,754.521,320.871z"/>
								<path fill="#FFFFFF" d="M746.499,325.502c1.244-0.719,3.242-0.719,4.478,0c0.862,0.501,1.104,1.224,0.766,1.862
									c-0.148-0.292-0.373-0.571-0.766-0.798c-1.234-0.72-3.232-0.72-4.478,0c-0.403,0.231-0.632,0.518-0.78,0.817
									C745.375,326.739,745.621,326.008,746.499,325.502z"/>
							</g>
						</g>
						<g>
							<path fill="#91A0DE" d="M750.381,356.273c-0.788,0.042-1.479-0.333-1.76-1.061c-0.415-1.07,0.222-2.484,1.419-3.161
								l10.219-5.861c1.188-0.667,2.502-0.36,2.917,0.71c0.412,1.068-0.223,2.483-1.42,3.159l-10.219,5.861
								C751.154,356.136,750.758,356.252,750.381,356.273z"/>
						</g>
						<path fill="#FFFFFF" d="M749.367,355.257c0.377-0.02,0.771-0.135,1.152-0.351l10.223-5.86
							c1.165-0.659,1.777-2.011,1.432-3.069c0.444,0.158,0.818,0.451,1.002,0.923c0.412,1.068-0.223,2.483-1.42,3.159l-10.219,5.861
							c-0.383,0.216-0.779,0.332-1.156,0.353c-0.788,0.042-1.479-0.333-1.764-1.061c-0.016-0.04-0.003-0.086-0.019-0.126
							C748.843,355.174,749.086,355.272,749.367,355.257z"/>
					</g>
				</g>
			</g>
		</g>
		<g>
			<g>
				
					<linearGradient id="SVGID_34_" gradientUnits="userSpaceOnUse" x1="263.4009" y1="302.7568" x2="657.335" y2="302.7568" gradientTransform="matrix(1 0 0 -1 0 872.457)">
					<stop  offset="0" style="stop-color:#E5E7FD"/>
					<stop  offset="0.8309" style="stop-color:#EDEFFF"/>
					<stop  offset="1" style="stop-color:#EFF1FF"/>
				</linearGradient>
				<path fill="url(#SVGID_34_)" d="M657.335,545.495h-27.948l-155.715-90.342c-6.802-3.94-15.188-3.949-21.995-0.02
					l-160.219,88.641h-28.057v24.518l0,0c-0.003,4.853,2.392,9.697,7.185,12.479l179.922,103.475
					c6.798,3.94,15.188,3.952,21.994,0.022l177.626-101.774c4.802-2.777,7.204-7.627,7.207-12.479l0,0V545.495z"/>
				
					<linearGradient id="SVGID_35_" gradientUnits="userSpaceOnUse" x1="393.877" y1="414.4351" x2="529.3696" y2="237.9304" gradientTransform="matrix(1 0 0 -1 0 872.457)">
					<stop  offset="0" style="stop-color:#E8ECFF"/>
					<stop  offset="0.3976" style="stop-color:#F2F5FF"/>
					<stop  offset="1" style="stop-color:#FEFEFE"/>
				</linearGradient>
				<path fill="url(#SVGID_35_)" d="M450.508,659.729L270.585,556.257c-9.591-5.561-9.578-19.414,0.022-24.955l181.069-100.686
					c6.809-3.932,15.193-3.921,21.995,0.02l176.479,102.38c9.589,5.563,9.578,19.415-0.022,24.959L472.502,659.749
					C465.694,663.68,457.306,663.677,450.508,659.729z"/>
				
					<linearGradient id="SVGID_36_" gradientUnits="userSpaceOnUse" x1="537.877" y1="259.2158" x2="399.1193" y2="381.8677" gradientTransform="matrix(1 0 0 -1 0 872.457)">
					<stop  offset="0" style="stop-color:#1A4DB6"/>
					<stop  offset="0.2804" style="stop-color:#2156C2"/>
					<stop  offset="0.7807" style="stop-color:#356FE0"/>
					<stop  offset="1" style="stop-color:#3F7CF0"/>
				</linearGradient>
				<path fill="url(#SVGID_36_)" d="M452.169,640.426l-149.604-86.041c-7.975-4.62-7.964-16.136,0.018-20.746l150.558-83.719
					c5.66-3.267,12.636-3.259,18.289,0.016l146.74,85.136c7.975,4.62,7.966,16.135-0.017,20.746l-147.696,84.626
					C464.798,643.712,457.822,643.709,452.169,640.426z"/>
				
					<linearGradient id="SVGID_37_" gradientUnits="userSpaceOnUse" x1="537.8994" y1="259.5068" x2="399.2491" y2="382.0639" gradientTransform="matrix(1 0 0 -1 0 872.457)">
					<stop  offset="0" style="stop-color:#3F7CF0"/>
					<stop  offset="0.2193" style="stop-color:#356FE0"/>
					<stop  offset="0.7196" style="stop-color:#2156C2"/>
					<stop  offset="1" style="stop-color:#1A4DB6"/>
				</linearGradient>
				<path fill="url(#SVGID_37_)" d="M302.583,546.939l150.558-83.72c5.66-3.268,12.636-3.264,18.289,0.016l146.74,85.13
					c1.669,0.969,2.905,2.28,3.874,3.723c3.664-5.447,2.428-13.369-3.874-17.017l-146.74-85.136
					c-5.653-3.273-12.629-3.281-18.289-0.016l-150.558,83.719c-6.312,3.646-7.556,11.569-3.891,17.027
					C299.665,549.218,300.907,547.903,302.583,546.939z"/>
				<path fill="#FFFFFF" d="M650.128,553.686L472.502,655.461c-6.808,3.929-15.196,3.918-21.994-0.021L270.585,551.964
					c-4.076-2.36-6.311-6.24-6.917-10.326c-0.819,5.519,1.415,11.427,6.917,14.619l179.922,103.472
					c6.798,3.948,15.188,3.951,21.994,0.021l177.626-101.772c5.519-3.188,7.762-9.105,6.94-14.634
					C656.461,547.439,654.219,551.323,650.128,553.686z"/>
			</g>
			
				<linearGradient id="SVGID_38_" gradientUnits="userSpaceOnUse" x1="460.3687" y1="299.2798" x2="460.3687" y2="633.8031" gradientTransform="matrix(1 0 0 -1 0 872.457)">
				<stop  offset="0" style="stop-color:#00E3F8"/>
				<stop  offset="1" style="stop-color:#FEFEFE;stop-opacity:0"/>
			</linearGradient>
			<path opacity="0.5" fill="url(#SVGID_38_)" enable-background="new    " d="M658.241,260.256c0.97-2.448,1.232-5.116,0.834-7.695
				l0.129-1.188h-0.354c-0.876-3.64-3.147-6.994-6.836-9.133L473.803,138.853c-6.867-3.983-15.337-3.99-22.21-0.02l-182.85,101.671
				c-4.278,2.47-6.663,6.572-7.169,10.869h-0.041l0.026,0.23c-0.209,2.041,0.017,4.11,0.657,6.072l30.504,281.464
				c-0.868,4.813,1.082,10.061,5.902,12.851l153.341,88.191c5.796,3.358,12.946,3.364,18.746,0.018l151.388-86.74
				c5.009-2.896,6.938-8.437,5.819-13.389L658.241,260.256z"/>
			<g>
				<g opacity="0.6">
				</g>
				<g>
					<g>
						
							<linearGradient id="SVGID_39_" gradientUnits="userSpaceOnUse" x1="365.8574" y1="398.8691" x2="500.0836" y2="327.0108" gradientTransform="matrix(1 0 0 -1 0 872.457)">
							<stop  offset="0" style="stop-color:#E5E7FD"/>
							<stop  offset="0.8309" style="stop-color:#EDEFFF"/>
							<stop  offset="1" style="stop-color:#EFF1FF"/>
						</linearGradient>
						<polygon fill="url(#SVGID_39_)" points="460.375,607.471 331.698,533.195 362.685,489.093 556.834,492.544 586.805,535.257 
													"/>
						
							<linearGradient id="SVGID_40_" gradientUnits="userSpaceOnUse" x1="507.3838" y1="344.4541" x2="393.6918" y2="426.2324" gradientTransform="matrix(1 0 0 -1 0 872.457)">
							<stop  offset="0" style="stop-color:#FEFEFE"/>
							<stop  offset="0.6024" style="stop-color:#F2F5FF"/>
							<stop  offset="1" style="stop-color:#E8ECFF"/>
						</linearGradient>
						<path fill="url(#SVGID_40_)" d="M452.724,550.315l-88.47-52.707c-3.798-2.256-3.747-7.779,0.092-9.974l89.809-51.296
							c3.61-2.062,8.054-2.021,11.627,0.106l88.468,52.707c3.8,2.264,3.748,7.778-0.091,9.974l-89.81,51.297
							C460.738,552.487,456.296,552.446,452.724,550.315z"/>
					</g>
					<g>
						
							<linearGradient id="SVGID_41_" gradientUnits="userSpaceOnUse" x1="496.7285" y1="386.9092" x2="422.3501" y2="440.4095" gradientTransform="matrix(1 0 0 -1 0 872.457)">
							<stop  offset="0" style="stop-color:#47F4FF"/>
							<stop  offset="0.1673" style="stop-color:#41DDFB"/>
							<stop  offset="0.7363" style="stop-color:#2F94F0"/>
							<stop  offset="1" style="stop-color:#2877EB"/>
						</linearGradient>
						
							<line fill="none" stroke="url(#SVGID_41_)" stroke-width="0.75" stroke-linecap="round" stroke-linejoin="round" stroke-miterlimit="10" x1="459.54" y1="380.987" x2="459.54" y2="536.608"/>
						
							<linearGradient id="SVGID_42_" gradientUnits="userSpaceOnUse" x1="508.666" y1="343.5322" x2="409.8375" y2="414.6193" gradientTransform="matrix(1 0 0 -1 0 872.457)">
							<stop  offset="0" style="stop-color:#47F4FF"/>
							<stop  offset="0.1673" style="stop-color:#41DDFB"/>
							<stop  offset="0.7363" style="stop-color:#2F94F0"/>
							<stop  offset="1" style="stop-color:#2877EB"/>
						</linearGradient>
						
							<polygon fill="none" stroke="url(#SVGID_42_)" stroke-width="0.75" stroke-linecap="round" stroke-linejoin="round" stroke-miterlimit="10" points="
							458.718,536.608 385.162,492.786 459.787,450.16 533.342,493.979 						"/>
						
							<linearGradient id="SVGID_43_" gradientUnits="userSpaceOnUse" x1="497.3496" y1="391.7588" x2="421.1589" y2="446.5626" gradientTransform="matrix(1 0 0 -1 0 872.457)">
							<stop  offset="0" style="stop-color:#47F4FF"/>
							<stop  offset="0.1673" style="stop-color:#41DDFB"/>
							<stop  offset="0.7363" style="stop-color:#2F94F0"/>
							<stop  offset="1" style="stop-color:#2877EB"/>
						</linearGradient>
						
							<polygon fill="none" stroke="url(#SVGID_43_)" stroke-width="0.75" stroke-linecap="round" stroke-linejoin="round" stroke-miterlimit="10" points="
							458.842,486.559 402.241,452.835 459.664,420.038 516.266,453.757 						"/>
						
							<linearGradient id="SVGID_44_" gradientUnits="userSpaceOnUse" x1="519.7695" y1="389.1006" x2="460.0591" y2="432.0502" gradientTransform="matrix(1 0 0 -1 0 872.457)">
							<stop  offset="0" style="stop-color:#47F4FF"/>
							<stop  offset="0.1673" style="stop-color:#41DDFB"/>
							<stop  offset="0.7363" style="stop-color:#2F94F0"/>
							<stop  offset="1" style="stop-color:#2877EB"/>
						</linearGradient>
						
							<line fill="none" stroke="url(#SVGID_44_)" stroke-width="0.75" stroke-linecap="round" stroke-linejoin="round" stroke-miterlimit="10" x1="480.207" y1="413.04" x2="499.623" y2="510.724"/>
						
							<linearGradient id="SVGID_45_" gradientUnits="userSpaceOnUse" x1="-165.4873" y1="389.0986" x2="-225.1986" y2="432.0488" gradientTransform="matrix(-1 0 0 -1 233.248 872.457)">
							<stop  offset="0" style="stop-color:#47F4FF"/>
							<stop  offset="0.1673" style="stop-color:#41DDFB"/>
							<stop  offset="0.7363" style="stop-color:#2F94F0"/>
							<stop  offset="1" style="stop-color:#2877EB"/>
						</linearGradient>
						
							<line fill="none" stroke="url(#SVGID_45_)" stroke-width="0.75" stroke-linecap="round" stroke-linejoin="round" stroke-miterlimit="10" x1="438.298" y1="413.04" x2="418.881" y2="510.724"/>
						
							<linearGradient id="SVGID_46_" gradientUnits="userSpaceOnUse" x1="486.0283" y1="448.9141" x2="432.4793" y2="487.4317" gradientTransform="matrix(1 0 0 -1 0 872.457)">
							<stop  offset="0" style="stop-color:#47F4FF"/>
							<stop  offset="0.1673" style="stop-color:#41DDFB"/>
							<stop  offset="0.7363" style="stop-color:#2F94F0"/>
							<stop  offset="1" style="stop-color:#2877EB"/>
						</linearGradient>
						
							<polygon fill="none" stroke="url(#SVGID_46_)" stroke-width="0.75" stroke-linecap="round" stroke-linejoin="round" stroke-miterlimit="10" points="
							458.966,427.582 419.32,403.961 459.54,380.987 499.188,404.606 						"/>
						
							<linearGradient id="SVGID_47_" gradientUnits="userSpaceOnUse" x1="549.0059" y1="399.6143" x2="483.5232" y2="446.7158" gradientTransform="matrix(1 0 0 -1 0 872.457)">
							<stop  offset="0" style="stop-color:#47F4FF"/>
							<stop  offset="0.1673" style="stop-color:#41DDFB"/>
							<stop  offset="0.7363" style="stop-color:#2F94F0"/>
							<stop  offset="1" style="stop-color:#2877EB"/>
						</linearGradient>
						
							<line fill="none" stroke="url(#SVGID_47_)" stroke-width="0.75" stroke-linecap="round" stroke-linejoin="round" stroke-miterlimit="10" x1="499.188" y1="404.606" x2="533.342" y2="493.979"/>
						
							<linearGradient id="SVGID_48_" gradientUnits="userSpaceOnUse" x1="412.3423" y1="416.8169" x2="392.1391" y2="431.349" gradientTransform="matrix(1 0 0 -1 0 872.457)">
							<stop  offset="0" style="stop-color:#47F4FF"/>
							<stop  offset="0.1673" style="stop-color:#41DDFB"/>
							<stop  offset="0.7363" style="stop-color:#2F94F0"/>
							<stop  offset="1" style="stop-color:#2877EB"/>
						</linearGradient>
						
							<line fill="none" stroke="url(#SVGID_48_)" stroke-width="0.75" stroke-linecap="round" stroke-linejoin="round" stroke-miterlimit="10" x1="419.32" y1="403.961" x2="385.162" y2="492.786"/>
						<g>
							
								<linearGradient id="SVGID_49_" gradientUnits="userSpaceOnUse" x1="420.707" y1="491.7559" x2="476.1044" y2="462.0988" gradientTransform="matrix(1 0 0 -1 0 872.457)">
								<stop  offset="0" style="stop-color:#E5E7FD"/>
								<stop  offset="0.8309" style="stop-color:#EDEFFF"/>
								<stop  offset="1" style="stop-color:#EFF1FF"/>
							</linearGradient>
							<polygon fill="url(#SVGID_49_)" points="459.715,435.957 406.608,405.302 419.396,387.101 499.525,388.524 511.896,406.151 
															"/>
							
								<linearGradient id="SVGID_50_" gradientUnits="userSpaceOnUse" x1="479.1172" y1="469.2979" x2="432.1942" y2="503.0495" gradientTransform="matrix(1 0 0 -1 0 872.457)">
								<stop  offset="0" style="stop-color:#FEFEFE"/>
								<stop  offset="0.6024" style="stop-color:#F2F5FF"/>
								<stop  offset="1" style="stop-color:#E8ECFF"/>
							</linearGradient>
							<path fill="url(#SVGID_50_)" d="M456.557,412.368l-36.512-21.752c-1.568-0.935-1.547-3.212,0.038-4.116l37.065-21.172
								c1.488-0.851,3.323-0.835,4.798,0.042l36.513,21.755c1.568,0.933,1.548,3.21-0.037,4.116l-37.065,21.171
								C459.866,413.264,458.032,413.247,456.557,412.368z"/>
						</g>
						
							<linearGradient id="SVGID_51_" gradientUnits="userSpaceOnUse" x1="475.0264" y1="504.4736" x2="444.0541" y2="526.7519" gradientTransform="matrix(1 0 0 -1 0 872.457)">
							<stop  offset="0" style="stop-color:#47F4FF"/>
							<stop  offset="0.1673" style="stop-color:#41DDFB"/>
							<stop  offset="0.7363" style="stop-color:#2F94F0"/>
							<stop  offset="1" style="stop-color:#2877EB"/>
						</linearGradient>
						
							<line fill="none" stroke="url(#SVGID_51_)" stroke-width="0.75" stroke-linecap="round" stroke-linejoin="round" stroke-miterlimit="10" x1="459.54" y1="324.817" x2="459.54" y2="388.87"/>
						
							<radialGradient id="SVGID_52_" cx="462.292" cy="551.1426" r="18.0599" gradientTransform="matrix(1 0 0 -1 0 872.457)" gradientUnits="userSpaceOnUse">
							<stop  offset="0" style="stop-color:#47F4FF"/>
							<stop  offset="0.1673" style="stop-color:#41DDFB"/>
							<stop  offset="0.7363" style="stop-color:#2F94F0"/>
							<stop  offset="1" style="stop-color:#2877EB"/>
						</radialGradient>
						<circle fill="url(#SVGID_52_)" cx="459.54" cy="324.817" r="10.489"/>
					</g>
					<g>
						
							<linearGradient id="SVGID_53_" gradientUnits="userSpaceOnUse" x1="447.1328" y1="276.9937" x2="481.3477" y2="276.9937" gradientTransform="matrix(0.7071 -0.7071 -0.7071 -0.7071 327.1401 830.6851)">
							<stop  offset="0" style="stop-color:#47F4FF"/>
							<stop  offset="0.1673" style="stop-color:#41DDFB"/>
							<stop  offset="0.7363" style="stop-color:#2F94F0"/>
							<stop  offset="1" style="stop-color:#2877EB"/>
						</linearGradient>
						
							<path fill="none" stroke="url(#SVGID_53_)" stroke-width="0.75" stroke-linecap="round" stroke-linejoin="round" stroke-miterlimit="10" d="
							M435.879,306.559c13.067-13.069,34.256-13.069,47.325,0"/>
						
							<linearGradient id="SVGID_54_" gradientUnits="userSpaceOnUse" x1="447.1328" y1="284.6157" x2="496.5908" y2="284.6157" gradientTransform="matrix(0.7071 -0.7071 -0.7071 -0.7071 327.1401 830.6851)">
							<stop  offset="0" style="stop-color:#47F4FF"/>
							<stop  offset="0.1673" style="stop-color:#41DDFB"/>
							<stop  offset="0.7363" style="stop-color:#2F94F0"/>
							<stop  offset="1" style="stop-color:#2877EB"/>
						</linearGradient>
						
							<path fill="none" stroke="url(#SVGID_54_)" stroke-width="0.75" stroke-linecap="round" stroke-linejoin="round" stroke-miterlimit="10" d="
							M425.1,295.78c19.021-19.021,49.861-19.021,68.883,0"/>
						
							<linearGradient id="SVGID_55_" gradientUnits="userSpaceOnUse" x1="447.1328" y1="292.6489" x2="512.6553" y2="292.6489" gradientTransform="matrix(0.7071 -0.7071 -0.7071 -0.7071 327.1401 830.6851)">
							<stop  offset="0" style="stop-color:#47F4FF"/>
							<stop  offset="0.1673" style="stop-color:#41DDFB"/>
							<stop  offset="0.7363" style="stop-color:#2F94F0"/>
							<stop  offset="1" style="stop-color:#2877EB"/>
						</linearGradient>
						
							<path fill="none" stroke="url(#SVGID_55_)" stroke-width="0.75" stroke-linecap="round" stroke-linejoin="round" stroke-miterlimit="10" d="
							M413.74,284.42c25.295-25.294,66.307-25.294,91.601,0"/>
					</g>
				</g>
			</g>
		</g>
		<g>
			<g>
				
					<linearGradient id="SVGID_56_" gradientUnits="userSpaceOnUse" x1="544.1191" y1="149.4893" x2="935.4453" y2="149.4893" gradientTransform="matrix(1 0 0 -1 0 872.457)">
					<stop  offset="0" style="stop-color:#E5E7FD"/>
					<stop  offset="0.8309" style="stop-color:#EDEFFF"/>
					<stop  offset="1" style="stop-color:#EFF1FF"/>
				</linearGradient>
				<path fill="url(#SVGID_56_)" d="M935.444,698.929h-27.768l-154.683-89.746c-6.755-3.921-15.085-3.924-21.85-0.021
					L571.99,697.214h-27.871v24.354l0,0c-0.002,4.818,2.376,9.638,7.139,12.396l178.728,102.794
					c6.755,3.913,15.089,3.918,21.849,0.018l176.451-101.102c4.769-2.756,7.157-7.575,7.16-12.394l0,0L935.444,698.929
					L935.444,698.929z"/>
				
					<linearGradient id="SVGID_57_" gradientUnits="userSpaceOnUse" x1="673.7305" y1="260.4321" x2="808.3244" y2="85.0981" gradientTransform="matrix(1 0 0 -1 0 872.457)">
					<stop  offset="0" style="stop-color:#E8ECFF"/>
					<stop  offset="0.3976" style="stop-color:#F2F5FF"/>
					<stop  offset="1" style="stop-color:#FEFEFE"/>
				</linearGradient>
				<path fill="url(#SVGID_57_)" d="M729.984,812.401L551.258,709.61c-9.527-5.525-9.517-19.281,0.021-24.79l179.869-100.012
					c6.764-3.911,15.094-3.9,21.849,0.018l175.31,101.701c9.528,5.522,9.515,19.285-0.021,24.787L751.833,812.418
					C745.073,816.327,736.739,816.319,729.984,812.401z"/>
				
					<linearGradient id="SVGID_58_" gradientUnits="userSpaceOnUse" x1="816.7783" y1="106.2383" x2="678.9393" y2="228.0783" gradientTransform="matrix(1 0 0 -1 0 872.457)">
					<stop  offset="0" style="stop-color:#1A4DB6"/>
					<stop  offset="0.2804" style="stop-color:#2156C2"/>
					<stop  offset="0.7807" style="stop-color:#356FE0"/>
					<stop  offset="1" style="stop-color:#3F7CF0"/>
				</linearGradient>
				<path fill="url(#SVGID_58_)" d="M731.636,793.229l-148.611-85.474c-7.923-4.59-7.912-16.029,0.018-20.61l149.562-83.162
					c5.621-3.245,12.552-3.239,18.168,0.017l145.768,84.564c7.922,4.597,7.913,16.04-0.018,20.612l-146.718,84.065
					C744.181,796.495,737.252,796.487,731.636,793.229z"/>
				
					<linearGradient id="SVGID_59_" gradientUnits="userSpaceOnUse" x1="816.8008" y1="106.5239" x2="679.0681" y2="228.2699" gradientTransform="matrix(1 0 0 -1 0 872.457)">
					<stop  offset="0" style="stop-color:#3F7CF0"/>
					<stop  offset="0.2193" style="stop-color:#356FE0"/>
					<stop  offset="0.7196" style="stop-color:#2156C2"/>
					<stop  offset="1" style="stop-color:#1A4DB6"/>
				</linearGradient>
				<path fill="url(#SVGID_59_)" d="M583.041,700.355l149.561-83.158c5.622-3.252,12.553-3.249,18.168,0.014l145.769,84.563
					c1.656,0.957,2.887,2.267,3.85,3.696c3.634-5.413,2.409-13.275-3.85-16.907L750.77,603.999
					c-5.615-3.256-12.546-3.262-18.168-0.017l-149.561,83.162c-6.271,3.62-7.507,11.49-3.865,16.92
					C580.143,702.622,581.377,701.318,583.041,700.355z"/>
				<path fill="#FFFFFF" d="M928.284,707.058L751.833,808.159c-6.76,3.903-15.094,3.896-21.849-0.018L551.258,705.351
					c-4.05-2.347-6.27-6.199-6.873-10.254c-0.813,5.477,1.404,11.348,6.873,14.514l178.728,102.791
					c6.755,3.918,15.089,3.926,21.849,0.018l176.451-101.104c5.479-3.162,7.706-9.04,6.894-14.532
					C934.573,700.852,932.348,704.712,928.284,707.058z"/>
			</g>
			<path opacity="0.8" fill="#00E3F8" enable-background="new    " d="M732.155,768.847l-139.121-80.008
				c-7.415-4.301-7.405-15.009,0.019-19.299l140.01-77.85c5.263-3.039,11.747-3.028,17.005,0.014l136.459,79.168
				c7.415,4.295,7.408,15.009-0.019,19.296l-137.345,78.697C743.899,771.905,737.415,771.902,732.155,768.847z"/>
			<path opacity="0.6" fill="#00E3F8" enable-background="new    " d="M733.941,733.79l-106.517-61.26
				c-5.678-3.29-5.671-11.493,0.013-14.772l107.196-59.614c4.03-2.318,8.995-2.318,13.022,0.019l104.479,60.606
				c5.679,3.298,5.669,11.497-0.015,14.782L746.964,733.8C742.934,736.126,737.969,736.123,733.941,733.79z"/>
			<g opacity="0.3">
			</g>
			<g>
				
					<linearGradient id="SVGID_60_" gradientUnits="userSpaceOnUse" x1="-474.0923" y1="300.9321" x2="-567.3632" y2="411.5361" gradientTransform="matrix(-0.9288 -0.0168 -0.0245 -1.0771 253.4471 899.5457)">
					<stop  offset="0" style="stop-color:#E8ECFF"/>
					<stop  offset="0.3976" style="stop-color:#F2F5FF"/>
					<stop  offset="1" style="stop-color:#FEFEFE"/>
				</linearGradient>
				<polygon fill="url(#SVGID_60_)" points="649.008,526.288 775.578,454.689 778.074,564.455 651.501,636.047 				"/>
				
					<linearGradient id="SVGID_61_" gradientUnits="userSpaceOnUse" x1="-479.9536" y1="366.5278" x2="-541.0801" y2="439.0139" gradientTransform="matrix(-0.9288 -0.0168 -0.0245 -1.0771 253.4471 899.5457)">
					<stop  offset="0" style="stop-color:#FEFEFE"/>
					<stop  offset="0.6024" style="stop-color:#F2F5FF"/>
					<stop  offset="1" style="stop-color:#E8ECFF"/>
				</linearGradient>
				<polygon fill="url(#SVGID_61_)" points="649.008,526.288 775.578,454.689 767.052,449.542 640.477,521.138 				"/>
				
					<linearGradient id="SVGID_62_" gradientUnits="userSpaceOnUse" x1="-436.8403" y1="352.2949" x2="-424.3033" y2="256.7" gradientTransform="matrix(-0.9288 -0.0168 -0.0245 -1.0771 253.4471 899.5457)">
					<stop  offset="0" style="stop-color:#E8ECFF"/>
					<stop  offset="0.4848" style="stop-color:#F5F7FE"/>
					<stop  offset="1" style="stop-color:#FEFEFE"/>
				</linearGradient>
				<polygon fill="url(#SVGID_62_)" points="649.008,526.288 640.354,521 642.846,630.76 651.501,636.047 				"/>
				
					<linearGradient id="SVGID_63_" gradientUnits="userSpaceOnUse" x1="-444.5376" y1="273.4087" x2="-527.905" y2="361.7681" gradientTransform="matrix(-0.9288 -0.0168 -0.0245 -1.0771 253.4471 899.5457)">
					<stop  offset="0" style="stop-color:#47F4FF"/>
					<stop  offset="0.1673" style="stop-color:#41DDFB"/>
					<stop  offset="0.7363" style="stop-color:#2F94F0"/>
					<stop  offset="1" style="stop-color:#2877EB"/>
				</linearGradient>
				<polygon fill="url(#SVGID_63_)" points="657.844,532.467 767.248,470.727 769.236,558.269 659.833,620.011 				"/>
				<g>
					<g enable-background="new    ">
						<g>
							<path fill="#FFFFFF" d="M714.656,540.139c-4.214,2.438-8.424,6.708-11.622,12.249c-0.579,1.009-0.576,2.095,0.008,2.43
								c0.29,0.163,0.676,0.111,1.056-0.106c0.381-0.226,0.763-0.611,1.054-1.118c2.617-4.535,6.064-8.039,9.515-10.026
								c3.453-1.994,6.909-2.479,9.544-0.967c0.29,0.163,0.672,0.104,1.056-0.116c0.382-0.219,0.765-0.604,1.055-1.104
								c0.58-1.005,0.577-2.097-0.009-2.432C723.094,537.113,718.872,537.708,714.656,540.139"/>
							<path fill="#FFFFFF" d="M714.636,532.304c-5.96,3.442-11.913,9.491-16.437,17.327c-0.581,1.001-0.578,2.09,0.007,2.419
								c0.292,0.173,0.673,0.118,1.054-0.097c0.383-0.222,0.763-0.612,1.053-1.117c3.944-6.827,9.136-12.107,14.332-15.104
								c5.197-2.999,10.399-3.729,14.368-1.466c0.292,0.167,0.674,0.109,1.056-0.109c0.383-0.218,0.765-0.61,1.053-1.106
								c0.584-1.008,0.579-2.097-0.006-2.429C726.564,528.034,720.596,528.864,714.636,532.304"/>
							<path fill="#FFFFFF" d="M714.61,524.037c-8.138,4.698-15.774,12.755-21.512,22.688c-0.581,1.006-0.575,2.095,0.009,2.433
								c0.292,0.168,0.673,0.105,1.055-0.108c0.383-0.219,0.764-0.607,1.054-1.111c5.176-8.968,12.063-16.232,19.403-20.469
								c7.342-4.238,14.248-4.936,19.455-1.965c0.294,0.165,0.676,0.109,1.057-0.112c0.383-0.223,0.764-0.606,1.055-1.106
								c0.58-1.011,0.577-2.094-0.008-2.433C730.407,518.563,722.749,519.338,714.61,524.037"/>
							<path fill="#FFFFFF" d="M714.686,550.875c-2.59,1.493-4.684,5.123-4.676,8.102c0.009,2.977,2.115,4.173,4.706,2.679
								c2.592-1.499,4.687-5.123,4.677-8.1C719.384,550.577,717.276,549.378,714.686,550.875"/>
						</g>
					</g>
				</g>
				<g opacity="0.7" enable-background="new    ">
					<g>
						<defs>
							<polygon id="SVGID_64_" points="657.844,532.467 767.248,470.727 769.236,558.269 659.833,620.011 							"/>
						</defs>
						<clipPath id="SVGID_65_">
							<use xlink:href="#SVGID_64_"  overflow="visible"/>
						</clipPath>
						<g opacity="0.7" clip-path="url(#SVGID_65_)">
							<g>
								<polygon opacity="0.8" fill="#00E3F8" enable-background="new    " points="767.479,590.534 790.607,576.348 
									648.281,488.099 625.15,502.284 								"/>
							</g>
							<g>
								<polygon opacity="0.8" fill="#00E3F8" enable-background="new    " points="735.426,593.16 757.867,591.289 
									615.544,503.038 593.1,504.911 								"/>
							</g>
						</g>
					</g>
				</g>
				<polygon fill="#FFFFFF" points="766.877,556.616 764.954,472.019 767.248,470.727 769.236,558.269 659.833,620.011 
					659.766,617.064 				"/>
				
					<linearGradient id="SVGID_66_" gradientUnits="userSpaceOnUse" x1="-522.6411" y1="231.0303" x2="-596.6582" y2="318.8023" gradientTransform="matrix(-0.9288 -0.0168 -0.0245 -1.0771 253.4471 899.5457)">
					<stop  offset="0" style="stop-color:#E8ECFF"/>
					<stop  offset="0.3976" style="stop-color:#F2F5FF"/>
					<stop  offset="1" style="stop-color:#FEFEFE"/>
				</linearGradient>
				<polygon fill="url(#SVGID_66_)" points="731.418,694.196 857.99,622.6 857.697,609.707 651.501,636.047 651.794,648.942 				"/>
				
					<linearGradient id="SVGID_67_" gradientUnits="userSpaceOnUse" x1="-523.8999" y1="238.5078" x2="-594.0257" y2="321.6654" gradientTransform="matrix(-0.9288 -0.0168 -0.0245 -1.0771 253.4471 899.5457)">
					<stop  offset="0" style="stop-color:#FEFEFE"/>
					<stop  offset="0.6024" style="stop-color:#F2F5FF"/>
					<stop  offset="1" style="stop-color:#E8ECFF"/>
				</linearGradient>
				<polygon fill="url(#SVGID_67_)" points="731.126,681.308 857.697,609.707 778.074,564.455 651.501,636.047 				"/>
				
					<linearGradient id="SVGID_68_" gradientUnits="userSpaceOnUse" x1="743.6797" y1="238.0044" x2="803.6602" y2="238.0044" gradientTransform="matrix(1 0 0 -1 0 872.457)">
					<stop  offset="0" style="stop-color:#54EDC8"/>
					<stop  offset="1" style="stop-color:#55DFEA"/>
				</linearGradient>
				<polygon fill="url(#SVGID_68_)" points="766.845,651.446 803.66,630.617 780.498,617.459 743.68,638.289 				"/>
				<polygon fill="#FFFFFF" points="780.549,619.564 745.559,639.354 743.68,638.289 780.498,617.459 803.66,630.617 
					801.831,631.654 				"/>
				<polygon fill="#E5E7FD" points="705.896,651.534 807.501,593.68 774.55,575.583 672.943,633.434 				"/>
				<g>
					<polygon fill="#91A0DE" points="705.896,651.534 807.501,593.68 807.409,589.526 672.849,629.274 672.943,633.434 					"/>
					<polygon fill="#E5E7FD" points="705.801,647.376 807.409,589.526 774.458,571.427 672.849,629.274 					"/>
					<g>
						<polygon fill="#FFFFFF" points="699.666,643.942 801.274,586.09 800.444,585.721 698.836,643.573 						"/>
						<polygon fill="#FFFFFF" points="692.948,640.262 794.556,582.415 793.726,582.049 692.117,639.901 						"/>
						<polygon fill="#FFFFFF" points="686.229,636.59 787.837,578.74 787.007,578.374 685.398,636.225 						"/>
						<polygon fill="#FFFFFF" points="679.511,632.922 781.118,575.071 780.288,574.702 678.681,632.553 						"/>
					</g>
					<g>
						<g>
							<polygon fill="#FFFFFF" points="801.007,593.16 801.563,592.864 768.607,574.767 768.054,575.06 							"/>
							<polygon fill="#FFFFFF" points="794.116,597.095 794.671,596.797 761.721,578.699 761.166,578.997 							"/>
							<polygon fill="#FFFFFF" points="787.229,601.023 787.783,600.729 754.833,582.632 754.278,582.923 							"/>
							<polygon fill="#FFFFFF" points="780.341,604.961 780.896,604.665 747.945,586.561 747.388,586.859 							"/>
							<polygon fill="#FFFFFF" points="773.45,608.893 774.005,608.596 741.055,590.5 740.5,590.796 							"/>
							<polygon fill="#FFFFFF" points="766.563,612.827 767.117,612.531 734.165,594.431 733.611,594.729 							"/>
							<polygon fill="#FFFFFF" points="759.672,616.755 760.229,616.465 727.276,598.366 726.722,598.664 							"/>
							<polygon fill="#FFFFFF" points="752.784,620.691 753.339,620.396 720.389,602.294 719.834,602.59 							"/>
							<polygon fill="#FFFFFF" points="745.896,624.623 746.451,624.333 713.501,606.229 712.945,606.526 							"/>
							<polygon fill="#FFFFFF" points="739.01,628.557 739.563,628.259 706.61,610.167 706.056,610.46 							"/>
							<polygon fill="#FFFFFF" points="732.119,632.489 732.674,632.195 699.723,614.098 699.168,614.395 							"/>
							<polygon fill="#FFFFFF" points="725.229,636.422 725.785,636.126 692.835,618.033 692.279,618.323 							"/>
							<polygon fill="#FFFFFF" points="718.342,640.359 718.896,640.061 685.945,621.961 685.39,622.257 							"/>
							<polygon fill="#FFFFFF" points="711.453,644.29 712.007,643.992 679.057,625.896 678.502,626.186 							"/>
						</g>
						<polygon fill="#91A0DE" points="700.063,644.225 801.671,586.37 800.842,586.004 699.233,643.856 						"/>
						<polygon fill="#91A0DE" points="693.345,640.549 794.952,582.703 794.123,582.336 692.515,640.188 						"/>
						<polygon fill="#91A0DE" points="686.626,636.877 788.233,579.026 787.404,578.662 685.796,636.511 						"/>
						<polygon fill="#91A0DE" points="679.907,633.208 781.515,575.358 780.686,574.989 679.076,632.836 						"/>
					</g>
					<g>
						<polygon fill="#91A0DE" points="800.58,593.406 801.138,593.11 768.184,575.005 767.63,575.303 						"/>
						<polygon fill="#91A0DE" points="793.692,597.334 794.247,597.038 761.297,578.944 760.742,579.235 						"/>
						<polygon fill="#91A0DE" points="786.805,601.268 787.359,600.972 754.409,582.873 753.852,583.169 						"/>
						<polygon fill="#91A0DE" points="779.914,605.2 780.469,604.904 747.521,586.807 746.964,587.105 						"/>
						<polygon fill="#91A0DE" points="773.026,609.135 773.581,608.837 740.631,590.739 740.076,591.037 						"/>
						<polygon fill="#91A0DE" points="766.136,613.067 766.693,612.777 733.741,594.672 733.186,594.97 						"/>
						<polygon fill="#91A0DE" points="759.248,617.001 759.803,616.705 726.854,598.606 726.298,598.899 						"/>
						<polygon fill="#91A0DE" points="752.361,620.933 752.915,620.639 719.965,602.54 719.409,602.836 						"/>
						<polygon fill="#91A0DE" points="745.47,624.867 746.027,624.571 713.074,606.474 712.52,606.768 						"/>
						<polygon fill="#91A0DE" points="738.582,628.795 739.14,628.505 706.188,610.406 705.632,610.704 						"/>
						<polygon fill="#91A0DE" points="731.695,632.734 732.249,632.436 699.299,614.341 698.744,614.63 						"/>
						<polygon fill="#91A0DE" points="724.806,636.668 725.359,636.373 692.409,618.273 691.854,618.566 						"/>
						<polygon fill="#91A0DE" points="717.916,640.597 718.471,640.303 685.521,622.208 684.966,622.5 						"/>
						<polygon fill="#91A0DE" points="711.027,644.532 711.583,644.238 678.631,626.138 678.077,626.435 						"/>
					</g>
				</g>
			</g>
		</g>
		<g>
			<g>
				
					<linearGradient id="SVGID_69_" gradientUnits="userSpaceOnUse" x1="2.0078" y1="154.3945" x2="393.334" y2="154.3945" gradientTransform="matrix(1 0 0 -1 0 872.457)">
					<stop  offset="0" style="stop-color:#E5E7FD"/>
					<stop  offset="0.8309" style="stop-color:#EDEFFF"/>
					<stop  offset="1" style="stop-color:#EFF1FF"/>
				</linearGradient>
				<path fill="url(#SVGID_69_)" d="M393.333,694.024h-27.764l-154.682-89.749c-6.754-3.918-15.088-3.922-21.85-0.019L29.88,692.309
					H2.008v24.354H2.01c-0.003,4.819,2.375,9.636,7.137,12.399l178.729,102.789c6.754,3.915,15.086,3.922,21.848,0.019
					l176.45-101.102c4.771-2.752,7.156-7.574,7.16-12.395l0,0L393.333,694.024L393.333,694.024z"/>
				
					<linearGradient id="SVGID_70_" gradientUnits="userSpaceOnUse" x1="131.6221" y1="265.335" x2="266.216" y2="90.0011" gradientTransform="matrix(1 0 0 -1 0 872.457)">
					<stop  offset="0" style="stop-color:#E8ECFF"/>
					<stop  offset="0.3976" style="stop-color:#F2F5FF"/>
					<stop  offset="1" style="stop-color:#FEFEFE"/>
				</linearGradient>
				<path fill="url(#SVGID_70_)" d="M187.875,807.499L9.147,704.706c-9.528-5.523-9.515-19.282,0.02-24.787L189.037,579.9
					c6.762-3.903,15.095-3.894,21.85,0.021l175.308,101.702c9.526,5.521,9.514,19.288-0.022,24.791l-176.45,101.104
					C202.961,811.421,194.63,811.411,187.875,807.499z"/>
				
					<linearGradient id="SVGID_71_" gradientUnits="userSpaceOnUse" x1="274.667" y1="111.1406" x2="136.829" y2="232.9797" gradientTransform="matrix(1 0 0 -1 0 872.457)">
					<stop  offset="0" style="stop-color:#1A4DB6"/>
					<stop  offset="0.2804" style="stop-color:#2156C2"/>
					<stop  offset="0.7807" style="stop-color:#356FE0"/>
					<stop  offset="1" style="stop-color:#3F7CF0"/>
				</linearGradient>
				<path fill="url(#SVGID_71_)" d="M189.526,788.324L40.915,702.851c-7.923-4.588-7.914-16.032,0.017-20.605l149.56-83.165
					c5.622-3.245,12.551-3.242,18.167,0.014l145.769,84.565c7.922,4.601,7.912,16.039-0.018,20.612l-146.717,84.066
					C202.07,791.589,195.141,791.58,189.526,788.324z"/>
				
					<linearGradient id="SVGID_72_" gradientUnits="userSpaceOnUse" x1="274.6914" y1="111.4297" x2="136.9586" y2="233.1756" gradientTransform="matrix(1 0 0 -1 0 872.457)">
					<stop  offset="0" style="stop-color:#3F7CF0"/>
					<stop  offset="0.2193" style="stop-color:#356FE0"/>
					<stop  offset="0.7196" style="stop-color:#2156C2"/>
					<stop  offset="1" style="stop-color:#1A4DB6"/>
				</linearGradient>
				<path fill="url(#SVGID_72_)" d="M40.932,695.45l149.56-83.157c5.622-3.253,12.551-3.246,18.167,0.013l145.769,84.564
					c1.657,0.96,2.884,2.269,3.848,3.7c3.64-5.415,2.411-13.281-3.848-16.911l-145.769-84.565
					c-5.617-3.256-12.545-3.259-18.167-0.014l-149.56,83.165c-6.271,3.617-7.508,11.49-3.866,16.911
					C38.032,697.717,39.266,696.413,40.932,695.45z"/>
				<path fill="#FFFFFF" d="M386.173,702.154l-176.45,101.1c-6.762,3.904-15.093,3.897-21.848-0.014L9.147,700.447
					c-4.05-2.349-6.27-6.2-6.872-10.255c-0.813,5.479,1.406,11.344,6.872,14.514l178.729,102.793
					c6.754,3.912,15.086,3.923,21.848,0.019l176.45-101.104c5.484-3.166,7.71-9.042,6.895-14.534
					C392.463,695.951,390.237,699.808,386.173,702.154z"/>
			</g>
			<path opacity="0.8" fill="#00E3F8" enable-background="new    " d="M190.045,763.947L50.926,683.934
				c-7.416-4.299-7.406-15.008,0.016-19.294l140.01-77.854c5.263-3.036,11.748-3.033,17.005,0.018l136.461,79.168
				c7.415,4.293,7.405,15.005-0.019,19.291L207.052,763.96C201.789,767.004,195.304,766.997,190.045,763.947z"/>
			<path opacity="0.6" fill="#00E3F8" enable-background="new    " d="M191.832,728.885L85.314,667.629
				c-5.677-3.293-5.67-11.498,0.013-14.777l107.198-59.608c4.03-2.329,8.996-2.323,13.021,0.017l104.48,60.607
				c5.679,3.296,5.672,11.494-0.013,14.772l-105.16,60.256C200.825,731.225,195.858,731.217,191.832,728.885z"/>
			<g opacity="0.5">
			</g>
			<g>
				
					<linearGradient id="SVGID_73_" gradientUnits="userSpaceOnUse" x1="63.6958" y1="269.6426" x2="-12.2038" y2="359.6469" gradientTransform="matrix(-0.9288 -0.0168 -0.0245 -1.0771 253.4471 899.5457)">
					<stop  offset="0" style="stop-color:#E8ECFF"/>
					<stop  offset="0.3976" style="stop-color:#F2F5FF"/>
					<stop  offset="1" style="stop-color:#FEFEFE"/>
				</linearGradient>
				<polygon fill="url(#SVGID_73_)" points="174.959,525.079 243.012,486.54 244.554,629.159 176.502,667.693 				"/>
				
					<linearGradient id="SVGID_74_" gradientUnits="userSpaceOnUse" x1="51.6968" y1="353.7568" x2="18.7402" y2="392.8381" gradientTransform="matrix(-0.9288 -0.0168 -0.0245 -1.0771 253.4471 899.5457)">
					<stop  offset="0" style="stop-color:#FEFEFE"/>
					<stop  offset="0.6024" style="stop-color:#F2F5FF"/>
					<stop  offset="1" style="stop-color:#E8ECFF"/>
				</linearGradient>
				<polygon fill="url(#SVGID_74_)" points="174.959,525.079 243.012,486.54 237.736,483.356 169.687,521.893 				"/>
				
					<linearGradient id="SVGID_75_" gradientUnits="userSpaceOnUse" x1="71.1494" y1="342.5381" x2="87.1834" y2="220.2792" gradientTransform="matrix(-0.9288 -0.0168 -0.0245 -1.0771 253.4471 899.5457)">
					<stop  offset="0" style="stop-color:#E8ECFF"/>
					<stop  offset="0.4848" style="stop-color:#F5F7FE"/>
					<stop  offset="1" style="stop-color:#FEFEFE"/>
				</linearGradient>
				<polygon fill="url(#SVGID_75_)" points="174.959,525.079 169.608,521.804 171.15,664.424 176.502,667.693 				"/>
				<g>
					
						<linearGradient id="SVGID_76_" gradientUnits="userSpaceOnUse" x1="84.251" y1="255.8813" x2="21.1008" y2="322.813" gradientTransform="matrix(-0.9288 -0.0168 -0.0245 -1.0771 253.4471 899.5457)">
						<stop  offset="0" style="stop-color:#47F4FF"/>
						<stop  offset="0.1673" style="stop-color:#41DDFB"/>
						<stop  offset="0.7363" style="stop-color:#2F94F0"/>
						<stop  offset="1" style="stop-color:#2877EB"/>
					</linearGradient>
					<polygon fill="url(#SVGID_76_)" points="180.792,533.114 237.507,501.074 238.723,610.183 182.009,642.226 					"/>
					<g>
						<g enable-background="new    ">
							<g>
								<path fill="#FFFFFF" d="M210.36,574.549c-4.215,2.433-8.424,6.711-11.622,12.247c-0.581,1.008-0.577,2.094,0.007,2.429
									c0.291,0.165,0.673,0.113,1.056-0.111c0.381-0.221,0.763-0.604,1.052-1.106c2.618-4.539,6.066-8.044,9.516-10.035
									c3.452-1.991,6.906-2.477,9.542-0.971c0.292,0.167,0.674,0.109,1.057-0.108c0.381-0.22,0.764-0.604,1.054-1.109
									c0.579-1.001,0.576-2.091-0.009-2.426C218.795,571.521,214.576,572.113,210.36,574.549"/>
								<path fill="#FFFFFF" d="M210.339,566.713c-5.96,3.442-11.913,9.491-16.438,17.327c-0.58,1-0.577,2.091,0.006,2.421
									c0.293,0.172,0.674,0.117,1.055-0.099c0.381-0.227,0.762-0.61,1.052-1.116c3.945-6.828,9.136-12.108,14.334-15.107
									c5.196-2.996,10.398-3.724,14.368-1.463c0.291,0.168,0.673,0.11,1.054-0.106c0.382-0.229,0.763-0.612,1.053-1.115
									c0.583-1,0.578-2.091-0.006-2.421C222.267,562.444,216.299,563.274,210.339,566.713"/>
								<path fill="#FFFFFF" d="M210.312,558.448c-8.135,4.694-15.772,12.749-21.509,22.683c-0.58,1.008-0.576,2.097,0.008,2.432
									c0.292,0.164,0.674,0.109,1.055-0.104c0.383-0.226,0.762-0.607,1.053-1.117c5.175-8.962,12.064-16.228,19.403-20.463
									c7.34-4.238,14.25-4.942,19.457-1.964c0.292,0.163,0.674,0.107,1.055-0.117c0.383-0.218,0.764-0.604,1.053-1.103
									c0.581-1.012,0.577-2.102-0.007-2.433C226.11,552.972,218.453,553.747,210.312,558.448"/>
								<path fill="#FFFFFF" d="M210.389,585.284c-2.59,1.492-4.684,5.117-4.676,8.096c0.01,2.979,2.116,4.177,4.707,2.686
									c2.59-1.499,4.685-5.124,4.676-8.101C215.087,584.988,212.98,583.784,210.389,585.284"/>
							</g>
						</g>
					</g>
					<g>
						<g>
							<defs>
								<polygon id="SVGID_77_" points="180.792,533.114 237.507,501.074 238.723,610.183 182.009,642.226 								"/>
							</defs>
							<clipPath id="SVGID_78_">
								<use xlink:href="#SVGID_77_"  overflow="visible"/>
							</clipPath>
							<g opacity="0.7" clip-path="url(#SVGID_78_)">
								<g>
									<polygon opacity="0.8" fill="#00E3F8" enable-background="new    " points="274.074,642.756 299.545,633.4 177.38,518.852 
										151.909,528.206 									"/>
								</g>
								<g>
									<polygon opacity="0.8" fill="#00E3F8" enable-background="new    " points="242.133,636.525 264.505,645.243 
										142.342,530.698 119.97,521.974 									"/>
								</g>
							</g>
						</g>
					</g>
					<polygon fill="#FFFFFF" points="237.279,609.175 236.104,501.867 237.507,501.074 238.723,610.183 182.009,642.226 
						181.968,640.422 					"/>
				</g>
				<g>
					
						<linearGradient id="SVGID_79_" gradientUnits="userSpaceOnUse" x1="-81.8999" y1="232.6055" x2="-94.7753" y2="240.2256" gradientTransform="matrix(-1 0 0 -1 124.9531 872.457)">
						<stop  offset="0" style="stop-color:#54EDC8"/>
						<stop  offset="1" style="stop-color:#55DFEA"/>
					</linearGradient>
					<path fill="url(#SVGID_79_)" d="M207.787,635.292c-1.376,4.111-0.043,7.788,2.976,8.211c3.019,0.421,6.583-2.568,7.958-6.681
						c1.377-4.106,0.046-7.781-2.974-8.205C212.728,628.202,209.165,631.188,207.787,635.292z"/>
					<path fill="#FFFFFF" d="M217.35,629.285c1.025,1.54,1.235,3.952,0.368,6.538c-1.376,4.106-4.939,7.097-7.959,6.673
						c-0.614-0.082-1.137-0.331-1.604-0.666c0.604,0.909,1.488,1.517,2.607,1.674c3.019,0.421,6.583-2.568,7.958-6.681
						C219.818,633.554,219.176,630.583,217.35,629.285z"/>
				</g>
			</g>
		</g>
	</g>
</g>
<g id="Layer_3">
	<g>
		<g>
			<g>
				<g>
					<g>
						<g>
							<g enable-background="new    ">
								<path fill="none" stroke="#000641" stroke-width="16.6741" d="M253.264,97.967l-5.431,6.839v20.054h-23.775V43.716h23.775
									V73.16l23.57-29.444h26.337l-28.694,35.704l30.128,45.441h-27.977L253.264,97.967z"/>
								<path fill="none" stroke="#000641" stroke-width="16.6741" d="M343.032,102.024l12.093,13.794
									c-5.534,6.724-13.425,10.201-24.492,10.201c-20.598,0-33.92-14.026-33.92-32.921c0-19.243,13.732-32.806,32.178-32.806
									c16.294,0,30.436,11.36,30.436,32.458L321,101.097c1.845,3.941,5.329,5.564,10.351,5.564
									C336.474,106.661,339.344,105.154,343.032,102.024z M319.463,88.693l17.934-3.941c-1.229-3.941-4.202-6.607-8.403-6.607
									C323.767,78.144,320.18,81.506,319.463,88.693z"/>
								<path fill="none" stroke="#000641" stroke-width="16.6741" d="M428.496,88.693v36.167h-23.16V93.214
									c0-7.883-2.664-10.896-6.866-10.896c-4.714,0-8.71,3.362-8.71,12.751v29.792H366.6V61.452h22.032v6.26
									c4.407-4.985,10.351-7.419,16.909-7.419C418.453,60.292,428.496,68.754,428.496,88.693z"/>
								<path fill="none" stroke="#000641" stroke-width="16.6741" d="M490.492,105.733v19.127h-53.493v-15.07l7.378-9.273h-4.509
									V85.1h16.704l3.587-4.521h-22.341V61.452h51.547v15.07l-6.866,8.694h4.919v15.417h-17.216l-3.997,5.101H490.492z"/>
								<path fill="none" stroke="#000641" stroke-width="16.6741" d="M495.611,43.02c0-7.535,5.432-13.331,13.938-13.331
									s13.937,5.333,13.937,12.868c0,7.999-5.431,13.794-13.937,13.794S495.611,50.555,495.611,43.02z M497.969,61.452h23.16
									v63.409h-23.16V61.452z"/>
								<path fill="none" stroke="#000641" stroke-width="16.6741" d="M574.722,102.024l12.093,13.794
									c-5.534,6.724-13.425,10.201-24.492,10.201c-20.598,0-33.92-14.026-33.92-32.921c0-19.243,13.731-32.806,32.178-32.806
									c16.294,0,30.436,11.36,30.436,32.458l-38.326,8.347c1.845,3.941,5.329,5.564,10.351,5.564
									C568.163,106.661,571.033,105.154,574.722,102.024z M551.152,88.693l17.934-3.941c-1.229-3.941-4.202-6.607-8.403-6.607
									C555.456,78.144,551.869,81.506,551.152,88.693z"/>
							</g>
						</g>
						<g enable-background="new    ">
							<path fill="none" stroke="#000641" stroke-width="16.6741" d="M253.264,97.967l-5.431,6.839v20.054h-23.775V43.716h23.775
								V73.16l23.57-29.444h26.337l-28.694,35.704l30.128,45.441h-27.977L253.264,97.967z"/>
							<path fill="none" stroke="#000641" stroke-width="16.6741" d="M343.032,102.024l12.093,13.794
								c-5.534,6.724-13.425,10.201-24.492,10.201c-20.598,0-33.92-14.026-33.92-32.921c0-19.243,13.732-32.806,32.178-32.806
								c16.294,0,30.436,11.36,30.436,32.458L321,101.097c1.845,3.941,5.329,5.564,10.351,5.564
								C336.474,106.661,339.344,105.154,343.032,102.024z M319.463,88.693l17.934-3.941c-1.229-3.941-4.202-6.607-8.403-6.607
								C323.767,78.144,320.18,81.506,319.463,88.693z"/>
							<path fill="none" stroke="#000641" stroke-width="16.6741" d="M428.496,88.693v36.167h-23.16V93.214
								c0-7.883-2.664-10.896-6.866-10.896c-4.714,0-8.71,3.362-8.71,12.751v29.792H366.6V61.452h22.032v6.26
								c4.407-4.985,10.351-7.419,16.909-7.419C418.453,60.292,428.496,68.754,428.496,88.693z"/>
							<path fill="none" stroke="#000641" stroke-width="16.6741" d="M490.492,105.733v19.127h-53.493v-15.07l7.378-9.273h-4.509
								V85.1h16.704l3.587-4.521h-22.341V61.452h51.547v15.07l-6.866,8.694h4.919v15.417h-17.216l-3.997,5.101H490.492z"/>
							<path fill="none" stroke="#000641" stroke-width="16.6741" d="M495.611,43.02c0-7.535,5.432-13.331,13.938-13.331
								s13.937,5.333,13.937,12.868c0,7.999-5.431,13.794-13.937,13.794S495.611,50.555,495.611,43.02z M497.969,61.452h23.16
								v63.409h-23.16V61.452z"/>
							<path fill="none" stroke="#000641" stroke-width="16.6741" d="M574.722,102.024l12.093,13.794
								c-5.534,6.724-13.425,10.201-24.492,10.201c-20.598,0-33.92-14.026-33.92-32.921c0-19.243,13.731-32.806,32.178-32.806
								c16.294,0,30.436,11.36,30.436,32.458l-38.326,8.347c1.845,3.941,5.329,5.564,10.351,5.564
								C568.163,106.661,571.033,105.154,574.722,102.024z M551.152,88.693l17.934-3.941c-1.229-3.941-4.202-6.607-8.403-6.607
								C555.456,78.144,551.869,81.506,551.152,88.693z"/>
						</g>
						<g>
							<g enable-background="new    ">
								<path fill="none" stroke="#000641" stroke-width="16.6741" d="M253.264,97.967l-5.431,6.839v20.054h-23.775V43.716h23.775
									V73.16l23.57-29.444h26.337l-28.694,35.704l30.128,45.441h-27.977L253.264,97.967z"/>
								<path fill="none" stroke="#000641" stroke-width="16.6741" d="M343.032,102.024l12.093,13.794
									c-5.534,6.724-13.425,10.201-24.492,10.201c-20.598,0-33.92-14.026-33.92-32.921c0-19.243,13.732-32.806,32.178-32.806
									c16.294,0,30.436,11.36,30.436,32.458L321,101.097c1.845,3.941,5.329,5.564,10.351,5.564
									C336.474,106.661,339.344,105.154,343.032,102.024z M319.463,88.693l17.934-3.941c-1.229-3.941-4.202-6.607-8.403-6.607
									C323.767,78.144,320.18,81.506,319.463,88.693z"/>
								<path fill="none" stroke="#000641" stroke-width="16.6741" d="M428.496,88.693v36.167h-23.16V93.214
									c0-7.883-2.664-10.896-6.866-10.896c-4.714,0-8.71,3.362-8.71,12.751v29.792H366.6V61.452h22.032v6.26
									c4.407-4.985,10.351-7.419,16.909-7.419C418.453,60.292,428.496,68.754,428.496,88.693z"/>
								<path fill="none" stroke="#000641" stroke-width="16.6741" d="M490.492,105.733v19.127h-53.493v-15.07l7.378-9.273h-4.509
									V85.1h16.704l3.587-4.521h-22.341V61.452h51.547v15.07l-6.866,8.694h4.919v15.417h-17.216l-3.997,5.101H490.492z"/>
								<path fill="none" stroke="#000641" stroke-width="16.6741" d="M495.611,43.02c0-7.535,5.432-13.331,13.938-13.331
									s13.937,5.333,13.937,12.868c0,7.999-5.431,13.794-13.937,13.794S495.611,50.555,495.611,43.02z M497.969,61.452h23.16
									v63.409h-23.16V61.452z"/>
								<path fill="none" stroke="#000641" stroke-width="16.6741" d="M574.722,102.024l12.093,13.794
									c-5.534,6.724-13.425,10.201-24.492,10.201c-20.598,0-33.92-14.026-33.92-32.921c0-19.243,13.731-32.806,32.178-32.806
									c16.294,0,30.436,11.36,30.436,32.458l-38.326,8.347c1.845,3.941,5.329,5.564,10.351,5.564
									C568.163,106.661,571.033,105.154,574.722,102.024z M551.152,88.693l17.934-3.941c-1.229-3.941-4.202-6.607-8.403-6.607
									C555.456,78.144,551.869,81.506,551.152,88.693z"/>
							</g>
						</g>
					</g>
					<g enable-background="new    ">
						<path fill="none" stroke="#000641" stroke-width="16.6741" d="M336.594,162.597v75.526h-22.51v-27.837h-20.793v27.837h-22.51
							v-75.526h22.51v26.758h20.793v-26.758H336.594z"/>
						<path fill="none" stroke="#000641" stroke-width="16.6741" d="M344.035,208.56c0-17.911,12.686-30.535,30.332-30.535
							c17.741,0,30.331,12.624,30.331,30.535c0,17.91-12.59,30.642-30.331,30.642C356.721,239.202,344.035,226.47,344.035,208.56z
							 M382.856,208.56c0-7.661-3.721-11.545-8.489-11.545c-4.77,0-8.489,3.884-8.489,11.545c0,7.66,3.72,11.652,8.489,11.652
							C379.136,220.212,382.856,216.22,382.856,208.56z"/>
						<path fill="none" stroke="#000641" stroke-width="16.6741" d="M447.336,236.073c-3.338,2.158-8.203,3.129-13.258,3.129
							c-14.403,0-22.797-7.661-22.797-23.953v-49.416h21.557v16.508h10.683v17.803h-10.683v14.89c0,3.668,1.908,5.718,4.483,5.718
							c1.717,0,3.434-0.54,4.864-1.618L447.336,236.073z"/>
						<path fill="none" stroke="#000641" stroke-width="16.6741" d="M449.531,233.375l5.913-16.076
							c4.96,3.345,12.019,5.287,18.219,5.287c5.246,0,6.677-1.079,6.677-2.805c0-6.042-30.046,2.05-30.046-21.579
							c0-11.113,9.157-20.177,26.707-20.177c7.631,0,15.738,1.619,21.271,4.855l-5.914,16.076
							c-5.341-3.345-10.683-4.315-15.07-4.315c-5.532,0-7.058,1.402-7.058,2.805c0,6.15,29.95-1.834,29.95,21.794
							c0,10.682-8.871,19.961-26.994,19.961C464.22,239.202,454.872,236.828,449.531,233.375z"/>
						<path fill="none" stroke="#000641" stroke-width="16.6741" d="M566.661,208.668c0,18.989-11.541,30.534-25.181,30.534
							c-5.723,0-10.11-1.619-13.259-5.071v24.924h-21.556v-79.95h20.507v4.855c3.147-3.992,7.821-5.935,14.308-5.935
							C555.12,178.025,566.661,189.678,566.661,208.668z M544.818,208.668c0-7.661-3.72-11.653-8.488-11.653
							c-4.77,0-8.489,3.992-8.489,11.653c0,7.66,3.72,11.544,8.489,11.544C541.099,220.212,544.818,216.328,544.818,208.668z"/>
						<path fill="none" stroke="#000641" stroke-width="16.6741" d="M570.67,208.56c0-17.911,12.686-30.535,30.332-30.535
							c17.741,0,30.331,12.624,30.331,30.535c0,17.91-12.59,30.642-30.331,30.642C583.355,239.202,570.67,226.47,570.67,208.56z
							 M609.491,208.56c0-7.661-3.721-11.545-8.489-11.545c-4.77,0-8.489,3.884-8.489,11.545c0,7.66,3.72,11.652,8.489,11.652
							C605.771,220.212,609.491,216.22,609.491,208.56z"/>
						<path fill="none" stroke="#000641" stroke-width="16.6741" d="M673.971,236.073c-3.338,2.158-8.203,3.129-13.258,3.129
							c-14.403,0-22.797-7.661-22.797-23.953v-49.416h21.557v16.508h10.683v17.803h-10.683v14.89c0,3.668,1.908,5.718,4.483,5.718
							c1.717,0,3.434-0.54,4.864-1.618L673.971,236.073z"/>
					</g>
				</g>
				<g>
					<g>
						<g enable-background="new    ">
							<path fill="#FFFFFF" d="M253.264,97.967l-5.431,6.839v20.054h-23.775V43.716h23.775V73.16l23.57-29.444h26.337
								l-28.694,35.704l30.128,45.441h-27.977L253.264,97.967z"/>
							<path fill="#FFFFFF" d="M343.032,102.024l12.093,13.794c-5.534,6.724-13.425,10.201-24.492,10.201
								c-20.598,0-33.92-14.026-33.92-32.921c0-19.243,13.732-32.806,32.178-32.806c16.294,0,30.436,11.36,30.436,32.458
								L321,101.097c1.845,3.941,5.329,5.564,10.351,5.564C336.474,106.661,339.344,105.154,343.032,102.024z M319.463,88.693
								l17.934-3.941c-1.229-3.941-4.202-6.607-8.403-6.607C323.767,78.144,320.18,81.506,319.463,88.693z"/>
							<path fill="#FFFFFF" d="M428.496,88.693v36.167h-23.16V93.214c0-7.883-2.664-10.896-6.866-10.896
								c-4.714,0-8.71,3.362-8.71,12.751v29.792H366.6V61.452h22.032v6.26c4.407-4.985,10.351-7.419,16.909-7.419
								C418.453,60.292,428.496,68.754,428.496,88.693z"/>
							<path fill="#FFFFFF" d="M490.492,105.733v19.127h-53.493v-15.07l7.378-9.273h-4.509V85.1h16.704l3.587-4.521h-22.341V61.452
								h51.547v15.07l-6.866,8.694h4.919v15.417h-17.216l-3.997,5.101H490.492z"/>
							<path fill="#FFFFFF" d="M495.611,43.02c0-7.535,5.432-13.331,13.938-13.331s13.937,5.333,13.937,12.868
								c0,7.999-5.431,13.794-13.937,13.794S495.611,50.555,495.611,43.02z M497.969,61.452h23.16v63.409h-23.16V61.452z"/>
							<path fill="#FFFFFF" d="M574.722,102.024l12.093,13.794c-5.534,6.724-13.425,10.201-24.492,10.201
								c-20.598,0-33.92-14.026-33.92-32.921c0-19.243,13.731-32.806,32.178-32.806c16.294,0,30.436,11.36,30.436,32.458
								l-38.326,8.347c1.845,3.941,5.329,5.564,10.351,5.564C568.163,106.661,571.033,105.154,574.722,102.024z M551.152,88.693
								l17.934-3.941c-1.229-3.941-4.202-6.607-8.403-6.607C555.456,78.144,551.869,81.506,551.152,88.693z"/>
						</g>
					</g>
					<g enable-background="new    ">
						<path fill="#00FFD8" d="M336.594,162.597v75.526h-22.51v-27.837h-20.793v27.837h-22.51v-75.526h22.51v26.758h20.793v-26.758
							H336.594z"/>
						<path fill="#00FFD8" d="M344.035,208.56c0-17.911,12.686-30.535,30.332-30.535c17.741,0,30.331,12.624,30.331,30.535
							c0,17.91-12.59,30.642-30.331,30.642C356.721,239.202,344.035,226.47,344.035,208.56z M382.856,208.56
							c0-7.661-3.721-11.545-8.489-11.545c-4.77,0-8.489,3.884-8.489,11.545c0,7.66,3.72,11.652,8.489,11.652
							C379.136,220.212,382.856,216.22,382.856,208.56z"/>
						<path fill="#00FFD8" d="M447.336,236.073c-3.338,2.158-8.203,3.129-13.258,3.129c-14.403,0-22.797-7.661-22.797-23.953
							v-49.416h21.557v16.508h10.683v17.803h-10.683v14.89c0,3.668,1.908,5.718,4.483,5.718c1.717,0,3.434-0.54,4.864-1.618
							L447.336,236.073z"/>
						<path fill="#00FFD8" d="M449.531,233.375l5.913-16.076c4.96,3.345,12.019,5.287,18.219,5.287c5.246,0,6.677-1.079,6.677-2.805
							c0-6.042-30.046,2.05-30.046-21.579c0-11.113,9.157-20.177,26.707-20.177c7.631,0,15.738,1.619,21.271,4.855l-5.914,16.076
							c-5.341-3.345-10.683-4.315-15.07-4.315c-5.532,0-7.058,1.402-7.058,2.805c0,6.15,29.95-1.834,29.95,21.794
							c0,10.682-8.871,19.961-26.994,19.961C464.22,239.202,454.872,236.828,449.531,233.375z"/>
						<path fill="#00FFD8" d="M566.661,208.668c0,18.989-11.541,30.534-25.181,30.534c-5.723,0-10.11-1.619-13.259-5.071v24.924
							h-21.556v-79.95h20.507v4.855c3.147-3.992,7.821-5.935,14.308-5.935C555.12,178.025,566.661,189.678,566.661,208.668z
							 M544.818,208.668c0-7.661-3.72-11.653-8.488-11.653c-4.77,0-8.489,3.992-8.489,11.653c0,7.66,3.72,11.544,8.489,11.544
							C541.099,220.212,544.818,216.328,544.818,208.668z"/>
						<path fill="#00FFD8" d="M570.67,208.56c0-17.911,12.686-30.535,30.332-30.535c17.741,0,30.331,12.624,30.331,30.535
							c0,17.91-12.59,30.642-30.331,30.642C583.355,239.202,570.67,226.47,570.67,208.56z M609.491,208.56
							c0-7.661-3.721-11.545-8.489-11.545c-4.77,0-8.489,3.884-8.489,11.545c0,7.66,3.72,11.652,8.489,11.652
							C605.771,220.212,609.491,216.22,609.491,208.56z"/>
						<path fill="#00FFD8" d="M673.971,236.073c-3.338,2.158-8.203,3.129-13.258,3.129c-14.403,0-22.797-7.661-22.797-23.953
							v-49.416h21.557v16.508h10.683v17.803h-10.683v14.89c0,3.668,1.908,5.718,4.483,5.718c1.717,0,3.434-0.54,4.864-1.618
							L673.971,236.073z"/>
					</g>
				</g>
			</g>
			<g>
				<g>
					<g>
						<path fill="#FB0405" d="M361.277,165.524c-10.526,0-19.089-9.569-19.089-21.332c0-11.763,8.563-21.332,19.089-21.332h207.898
							c10.525,0,19.089,9.569,19.089,21.332c0,11.763-8.563,21.332-19.089,21.332H361.277z"/>
					</g>
					<g>
						<path fill="#000641" d="M569.177,124.86c9.399,0,17.089,8.701,17.089,19.332c0,10.633-7.688,19.332-17.089,19.332H361.277
							c-9.399,0-17.089-8.699-17.089-19.332c0-10.631,7.689-19.332,17.089-19.332H569.177 M569.177,120.86H361.277
							c-11.629,0-21.089,10.467-21.089,23.332c0,12.865,9.46,23.332,21.089,23.332h207.898c11.629,0,21.089-10.467,21.089-23.332
							C590.265,131.327,580.806,120.86,569.177,120.86L569.177,120.86z"/>
					</g>
				</g>
				<g enable-background="new    ">
					<g>
						<path fill="#FFFFFF" d="M384.712,150.459l-0.019-8.818l-3.825,7.265h-1.355l-3.807-7.076v8.629h-2.823v-14.697h2.488
							l4.865,9.133l4.792-9.133h2.47l0.037,14.697H384.712z"/>
					</g>
					<g>
						<path fill="#FFFFFF" d="M409.122,147.31h-6.035l-1.151,3.149h-3.082l5.794-14.697h2.971l5.813,14.697h-3.157L409.122,147.31z
							 M408.176,144.727l-2.062-5.627l-2.062,5.627H408.176z"/>
					</g>
					<g>
						<path fill="#FFFFFF" d="M436.653,135.762v14.697h-2.47l-6.48-8.923v8.923h-2.972v-14.697h2.488l6.463,8.923v-8.923H436.653z"
							/>
					</g>
					<g>
						<path fill="#FFFFFF" d="M448.865,143.11c0-4.43,3.008-7.601,7.057-7.601c2.246,0,4.122,0.924,5.348,2.604l-1.932,2.016
							c-0.872-1.134-1.968-1.722-3.268-1.722c-2.433,0-4.16,1.932-4.16,4.703s1.728,4.703,4.16,4.703c1.3,0,2.396-0.588,3.268-1.743
							l1.932,2.016c-1.226,1.701-3.102,2.625-5.366,2.625C451.873,150.711,448.865,147.541,448.865,143.11z"/>
					</g>
					<g>
						<path fill="#FFFFFF" d="M481.54,147.31h-6.035l-1.151,3.149h-3.082l5.794-14.697h2.971l5.813,14.697h-3.157L481.54,147.31z
							 M480.594,144.727l-2.062-5.627l-2.062,5.627H480.594z"/>
					</g>
					<g>
						<path fill="#FFFFFF" d="M505.748,142.879h2.748v5.963c-1.43,1.218-3.398,1.869-5.255,1.869c-4.086,0-7.094-3.17-7.094-7.601
							s3.008-7.601,7.149-7.601c2.284,0,4.178,0.882,5.44,2.541l-1.931,2.016c-0.947-1.134-2.043-1.659-3.361-1.659
							c-2.525,0-4.253,1.911-4.253,4.703c0,2.75,1.728,4.703,4.216,4.703c0.816,0,1.578-0.168,2.34-0.63V142.879z"/>
					</g>
					<g>
						<path fill="#FFFFFF" d="M529.788,147.31h-6.036l-1.151,3.149h-3.082l5.794-14.697h2.971l5.813,14.697h-3.157L529.788,147.31z
							 M528.841,144.727l-2.062-5.627l-2.062,5.627H528.841z"/>
					</g>
					<g>
						<path fill="#FFFFFF" d="M553.68,150.459l-2.507-4.094h-0.148h-2.618v4.094h-3.009v-14.697h5.627
							c3.473,0,5.646,2.037,5.646,5.333c0,2.205-0.984,3.821-2.674,4.64l2.915,4.724H553.68z M550.857,138.533h-2.451v5.123h2.451
							c1.838,0,2.767-0.966,2.767-2.562C553.624,139.478,552.695,138.533,550.857,138.533z"/>
					</g>
				</g>
			</g>
		</g>
	</g>
</g>
</svg>
