<?xml version="1.0" encoding="utf-8"?>
<!-- Generator: Adobe Illustrator 16.0.0, SVG Export Plug-In . SVG Version: 6.00 Build 0)  -->
<!DOCTYPE svg PUBLIC "-//W3C//DTD SVG 1.1//EN" "http://www.w3.org/Graphics/SVG/1.1/DTD/svg11.dtd">
<svg version="1.1" id="Layer_1" xmlns="http://www.w3.org/2000/svg" xmlns:xlink="http://www.w3.org/1999/xlink" x="0px" y="0px"
	 width="148.958px" height="28.5px" viewBox="0 0 148.958 28.5" enable-background="new 0 0 148.958 28.5" xml:space="preserve">
<image display="none" overflow="visible" enable-background="new    " width="1601" height="901" xlink:href="8BF70956.jpeg"  transform="matrix(0.9994 0 0 0.9989 -671.0415 -307.583)">
</image>
<g>
	<path fill="#00F9FF" d="M23.665,20.247l-1.625,2.046v5.997h-7.112V4.022h7.112v8.806l7.05-8.806h7.878L28.386,14.7l9.012,13.59
		H29.03L23.665,20.247z"/>
	<path fill="#00F9FF" d="M50.514,21.461l3.617,4.125c-1.655,2.012-4.016,3.051-7.326,3.051c-6.161,0-10.147-4.195-10.147-9.846
		c0-5.755,4.108-9.812,9.626-9.812c4.874,0,9.104,3.398,9.104,9.708l-11.465,2.496c0.552,1.178,1.595,1.664,3.097,1.664
		C48.552,22.848,49.411,22.396,50.514,21.461z M43.463,17.475l5.365-1.18c-0.368-1.179-1.257-1.976-2.514-1.976
		C44.751,14.319,43.678,15.324,43.463,17.475z"/>
	<path fill="#00F9FF" d="M76.077,17.475V28.29h-6.928v-9.464c0-2.358-0.797-3.26-2.054-3.26c-1.41,0-2.605,1.006-2.605,3.813v8.909
		h-6.928V9.327h6.591v1.871c1.317-1.49,3.096-2.219,5.058-2.219C73.073,8.979,76.077,11.511,76.077,17.475z"/>
	<path fill="#00F9FF" d="M94.62,22.57v5.72H78.618v-4.507l2.207-2.773h-1.35V16.4h4.996l1.072-1.354h-6.683v-5.72H94.28v4.506
		l-2.054,2.601h1.472v4.611h-5.15l-1.194,1.525H94.62z"/>
	<path fill="#00F9FF" d="M96.148,3.814c0-2.253,1.624-3.987,4.169-3.987c2.544,0,4.169,1.595,4.169,3.848
		c0,2.392-1.625,4.126-4.169,4.126C97.772,7.802,96.148,6.067,96.148,3.814z M96.853,9.327h6.928V28.29h-6.928V9.327z"/>
	<path fill="#00F9FF" d="M119.811,21.461l3.617,4.125c-1.655,2.012-4.016,3.051-7.327,3.051c-6.161,0-10.146-4.195-10.146-9.846
		c0-5.755,4.107-9.812,9.625-9.812c4.875,0,9.104,3.398,9.104,9.708l-11.465,2.496c0.552,1.178,1.594,1.664,3.096,1.664
		C117.849,22.848,118.708,22.396,119.811,21.461z M112.76,17.475l5.363-1.18c-0.367-1.179-1.256-1.976-2.514-1.976
		C114.047,14.319,112.975,15.324,112.76,17.475z"/>
	<path d="M125.937,24.13c0-2.669,1.747-4.438,4.046-4.438c2.301,0,4.047,1.77,4.047,4.438c0,2.636-1.746,4.507-4.047,4.507
		C127.684,28.637,125.937,26.766,125.937,24.13z"/>
</g>
</svg>
